# MagicaVoxel @ Ephtracy

# group
o 

# material
mtllib hat.mtl
usemtl palette

# normals
vn -1 0 0
vn 1 0 0
vn 0 0 1
vn 0 0 -1
vn 0 -1 0
vn 0 1 0

# texcoords
vt 0.0214844 0.5
vt 0.857422 0.5
vt 0.990234 0.5

# verts
v -0.8 0 0.8
v -0.8 0 0.1
v -0.8 0.1 0.8
v -0.8 0.1 0.1
v -0.7 0 1
v -0.7 0 0.8
v -0.7 0 0.1
v -0.7 0 -0.1
v -0.7 0.1 1
v -0.7 0.1 0.8
v -0.7 0.1 0.1
v -0.7 0.1 -0.1
v -0.5 0 1.1
v -0.5 0 1
v -0.5 0 -0.1
v -0.5 0 -0.2
v -0.5 0.1 1.1
v -0.5 0.1 1
v -0.5 0.1 0.7
v -0.5 0.1 0.5
v -0.5 0.1 0.4
v -0.5 0.1 0.2
v -0.5 0.1 -0.1
v -0.5 0.1 -0.2
v -0.5 0.3 0.7
v -0.5 0.3 0.5
v -0.5 0.3 0.4
v -0.5 0.3 0.2
v -0.5 1 0.7
v -0.5 1 0.2
v -0.4 0.1 0.8
v -0.4 0.1 0.7
v -0.4 0.1 0.2
v -0.4 0.1 0.1
v -0.4 0.3 0.8
v -0.4 0.3 0.7
v -0.4 0.3 0.2
v -0.4 0.3 0.1
v -0.4 1 0.8
v -0.4 1 0.7
v -0.4 1 0.2
v -0.4 1 0.1
v 0.1 0.9 0.7
v 0.1 0.9 0.2
v 0.1 1 0.7
v 0.1 1 0.2
v -0.4 0.9 0.7
v -0.4 0.9 0.2
v -0.4 1 0.7
v -0.4 1 0.2
v 0.1 0.1 0.8
v 0.1 0.1 0.7
v 0.1 0.1 0.2
v 0.1 0.1 0.1
v 0.1 0.3 0.8
v 0.1 0.3 0.7
v 0.1 0.3 0.2
v 0.1 0.3 0.1
v 0.1 1 0.8
v 0.1 1 0.7
v 0.1 1 0.2
v 0.1 1 0.1
v 0.2 0 1.1
v 0.2 0 1
v 0.2 0 -0.1
v 0.2 0 -0.2
v 0.2 0.1 1.1
v 0.2 0.1 1
v 0.2 0.1 0.7
v 0.2 0.1 0.5
v 0.2 0.1 0.4
v 0.2 0.1 0.2
v 0.2 0.1 -0.1
v 0.2 0.1 -0.2
v 0.2 0.3 0.7
v 0.2 0.3 0.5
v 0.2 0.3 0.4
v 0.2 0.3 0.2
v 0.2 1 0.7
v 0.2 1 0.2
v 0.4 0 1
v 0.4 0 0.8
v 0.4 0 0.1
v 0.4 0 -0.1
v 0.4 0.1 1
v 0.4 0.1 0.8
v 0.4 0.1 0.1
v 0.4 0.1 -0.1
v 0.5 0 0.8
v 0.5 0 0.1
v 0.5 0.1 0.8
v 0.5 0.1 0.1
v -0.5 0 1.1
v -0.5 0.1 1.1
v 0.2 0 1.1
v 0.2 0.1 1.1
v -0.7 0 1
v -0.7 0.1 1
v -0.5 0 1
v -0.5 0.1 1
v 0.2 0 1
v 0.2 0.1 1
v 0.4 0 1
v 0.4 0.1 1
v -0.8 0 0.8
v -0.8 0.1 0.8
v -0.7 0 0.8
v -0.7 0.1 0.8
v -0.4 0.1 0.8
v -0.4 0.3 0.8
v -0.4 1 0.8
v -0.2 0.1 0.8
v -0.2 0.3 0.8
v -0.1 0.1 0.8
v -0.1 0.3 0.8
v 0.1 0.1 0.8
v 0.1 0.3 0.8
v 0.1 1 0.8
v 0.4 0 0.8
v 0.4 0.1 0.8
v 0.5 0 0.8
v 0.5 0.1 0.8
v -0.5 0.1 0.7
v -0.5 0.3 0.7
v -0.5 1 0.7
v -0.4 0.1 0.7
v -0.4 0.3 0.7
v -0.4 1 0.7
v 0.1 0.1 0.7
v 0.1 0.3 0.7
v 0.1 1 0.7
v 0.2 0.1 0.7
v 0.2 0.3 0.7
v 0.2 1 0.7
v -0.4 0.9 0.2
v -0.4 1 0.2
v 0.1 0.9 0.2
v 0.1 1 0.2
v -0.4 0.9 0.7
v -0.4 1 0.7
v 0.1 0.9 0.7
v 0.1 1 0.7
v -0.5 0.1 0.2
v -0.5 0.3 0.2
v -0.5 1 0.2
v -0.4 0.1 0.2
v -0.4 0.3 0.2
v -0.4 1 0.2
v 0.1 0.1 0.2
v 0.1 0.3 0.2
v 0.1 1 0.2
v 0.2 0.1 0.2
v 0.2 0.3 0.2
v 0.2 1 0.2
v -0.8 0 0.1
v -0.8 0.1 0.1
v -0.7 0 0.1
v -0.7 0.1 0.1
v -0.4 0.1 0.1
v -0.4 0.3 0.1
v -0.4 1 0.1
v -0.2 0.1 0.1
v -0.2 0.3 0.1
v -0.1 0.1 0.1
v -0.1 0.3 0.1
v 0.1 0.1 0.1
v 0.1 0.3 0.1
v 0.1 1 0.1
v 0.4 0 0.1
v 0.4 0.1 0.1
v 0.5 0 0.1
v 0.5 0.1 0.1
v -0.7 0 -0.1
v -0.7 0.1 -0.1
v -0.5 0 -0.1
v -0.5 0.1 -0.1
v 0.2 0 -0.1
v 0.2 0.1 -0.1
v 0.4 0 -0.1
v 0.4 0.1 -0.1
v -0.5 0 -0.2
v -0.5 0.1 -0.2
v 0.2 0 -0.2
v 0.2 0.1 -0.2
v -0.5 0 1.1
v 0.2 0 1.1
v -0.7 0 1
v -0.5 0 1
v 0.2 0 1
v 0.4 0 1
v -0.8 0 0.8
v -0.7 0 0.8
v 0.4 0 0.8
v 0.5 0 0.8
v -0.8 0 0.1
v -0.7 0 0.1
v 0.4 0 0.1
v 0.5 0 0.1
v -0.7 0 -0.1
v -0.5 0 -0.1
v 0.2 0 -0.1
v 0.4 0 -0.1
v -0.5 0 -0.2
v 0.2 0 -0.2
v -0.5 0.1 1.1
v 0.2 0.1 1.1
v -0.7 0.1 1
v -0.5 0.1 1
v 0.2 0.1 1
v 0.4 0.1 1
v -0.8 0.1 0.8
v -0.7 0.1 0.8
v -0.4 0.1 0.8
v -0.2 0.1 0.8
v -0.1 0.1 0.8
v 0.1 0.1 0.8
v 0.4 0.1 0.8
v 0.5 0.1 0.8
v -0.5 0.1 0.7
v -0.4 0.1 0.7
v 0.1 0.1 0.7
v 0.2 0.1 0.7
v -0.5 0.1 0.5
v 0.2 0.1 0.5
v -0.5 0.1 0.4
v 0.2 0.1 0.4
v -0.5 0.1 0.2
v -0.4 0.1 0.2
v 0.1 0.1 0.2
v 0.2 0.1 0.2
v -0.8 0.1 0.1
v -0.7 0.1 0.1
v -0.4 0.1 0.1
v -0.2 0.1 0.1
v -0.1 0.1 0.1
v 0.1 0.1 0.1
v 0.4 0.1 0.1
v 0.5 0.1 0.1
v -0.7 0.1 -0.1
v -0.5 0.1 -0.1
v 0.2 0.1 -0.1
v 0.4 0.1 -0.1
v -0.5 0.1 -0.2
v 0.2 0.1 -0.2
v -0.4 0.9 0.7
v 0.1 0.9 0.7
v -0.4 0.9 0.2
v 0.1 0.9 0.2
v -0.4 1 0.8
v 0.1 1 0.8
v -0.5 1 0.7
v -0.4 1 0.7
v 0.1 1 0.7
v 0.2 1 0.7
v -0.5 1 0.2
v -0.4 1 0.2
v 0.1 1 0.2
v 0.2 1 0.2
v -0.4 1 0.1
v 0.1 1 0.1

# faces
f 3/3/1 2/3/1 1/3/1
f 4/3/1 2/3/1 3/3/1
f 9/3/1 6/3/1 5/3/1
f 10/3/1 6/3/1 9/3/1
f 11/3/1 8/3/1 7/3/1
f 12/3/1 8/3/1 11/3/1
f 17/3/1 14/3/1 13/3/1
f 18/3/1 14/3/1 17/3/1
f 23/3/1 16/3/1 15/3/1
f 24/3/1 16/3/1 23/3/1
f 25/2/1 20/2/1 19/2/1
f 26/1/1 21/1/1 20/1/1
f 26/2/1 20/2/1 25/2/1
f 27/2/1 22/2/1 21/2/1
f 27/1/1 21/1/1 26/1/1
f 28/2/1 22/2/1 27/2/1
f 29/3/1 26/3/1 25/3/1
f 29/3/1 27/3/1 26/3/1
f 29/3/1 28/3/1 27/3/1
f 30/3/1 28/3/1 29/3/1
f 35/2/1 32/2/1 31/2/1
f 36/2/1 32/2/1 35/2/1
f 37/2/1 34/2/1 33/2/1
f 38/2/1 34/2/1 37/2/1
f 39/3/1 36/3/1 35/3/1
f 40/3/1 36/3/1 39/3/1
f 41/3/1 38/3/1 37/3/1
f 42/3/1 38/3/1 41/3/1
f 45/3/1 44/3/1 43/3/1
f 46/3/1 44/3/1 45/3/1
f 47/3/2 48/3/2 49/3/2
f 49/3/2 48/3/2 50/3/2
f 51/2/2 52/2/2 55/2/2
f 55/2/2 52/2/2 56/2/2
f 53/2/2 54/2/2 57/2/2
f 57/2/2 54/2/2 58/2/2
f 55/3/2 56/3/2 59/3/2
f 59/3/2 56/3/2 60/3/2
f 57/3/2 58/3/2 61/3/2
f 61/3/2 58/3/2 62/3/2
f 63/3/2 64/3/2 67/3/2
f 67/3/2 64/3/2 68/3/2
f 65/3/2 66/3/2 73/3/2
f 73/3/2 66/3/2 74/3/2
f 69/2/2 70/2/2 75/2/2
f 70/1/2 71/1/2 76/1/2
f 75/2/2 70/2/2 76/2/2
f 71/2/2 72/2/2 77/2/2
f 76/1/2 71/1/2 77/1/2
f 77/2/2 72/2/2 78/2/2
f 75/3/2 76/3/2 79/3/2
f 76/3/2 77/3/2 79/3/2
f 77/3/2 78/3/2 79/3/2
f 79/3/2 78/3/2 80/3/2
f 81/3/2 82/3/2 85/3/2
f 85/3/2 82/3/2 86/3/2
f 83/3/2 84/3/2 87/3/2
f 87/3/2 84/3/2 88/3/2
f 89/3/2 90/3/2 91/3/2
f 91/3/2 90/3/2 92/3/2
f 95/3/3 94/3/3 93/3/3
f 96/3/3 94/3/3 95/3/3
f 99/3/3 98/3/3 97/3/3
f 100/3/3 98/3/3 99/3/3
f 103/3/3 102/3/3 101/3/3
f 104/3/3 102/3/3 103/3/3
f 107/3/3 106/3/3 105/3/3
f 108/3/3 106/3/3 107/3/3
f 112/2/3 110/2/3 109/2/3
f 113/3/3 111/3/3 110/3/3
f 113/2/3 110/2/3 112/2/3
f 114/1/3 113/1/3 112/1/3
f 115/3/3 111/3/3 113/3/3
f 115/1/3 113/1/3 114/1/3
f 116/2/3 115/2/3 114/2/3
f 117/3/3 111/3/3 115/3/3
f 117/2/3 115/2/3 116/2/3
f 118/3/3 111/3/3 117/3/3
f 121/3/3 120/3/3 119/3/3
f 122/3/3 120/3/3 121/3/3
f 126/2/3 124/2/3 123/2/3
f 127/3/3 125/3/3 124/3/3
f 127/2/3 124/2/3 126/2/3
f 128/3/3 125/3/3 127/3/3
f 132/2/3 130/2/3 129/2/3
f 133/3/3 131/3/3 130/3/3
f 133/2/3 130/2/3 132/2/3
f 134/3/3 131/3/3 133/3/3
f 137/3/3 136/3/3 135/3/3
f 138/3/3 136/3/3 137/3/3
f 139/3/4 140/3/4 141/3/4
f 141/3/4 140/3/4 142/3/4
f 143/2/4 144/2/4 146/2/4
f 144/3/4 145/3/4 147/3/4
f 146/2/4 144/2/4 147/2/4
f 147/3/4 145/3/4 148/3/4
f 149/2/4 150/2/4 152/2/4
f 150/3/4 151/3/4 153/3/4
f 152/2/4 150/2/4 153/2/4
f 153/3/4 151/3/4 154/3/4
f 155/3/4 156/3/4 157/3/4
f 157/3/4 156/3/4 158/3/4
f 159/2/4 160/2/4 162/2/4
f 160/3/4 161/3/4 163/3/4
f 162/2/4 160/2/4 163/2/4
f 162/1/4 163/1/4 164/1/4
f 163/3/4 161/3/4 165/3/4
f 164/1/4 163/1/4 165/1/4
f 164/2/4 165/2/4 166/2/4
f 165/3/4 161/3/4 167/3/4
f 166/2/4 165/2/4 167/2/4
f 167/3/4 161/3/4 168/3/4
f 169/3/4 170/3/4 171/3/4
f 171/3/4 170/3/4 172/3/4
f 173/3/4 174/3/4 175/3/4
f 175/3/4 174/3/4 176/3/4
f 177/3/4 178/3/4 179/3/4
f 179/3/4 178/3/4 180/3/4
f 181/3/4 182/3/4 183/3/4
f 183/3/4 182/3/4 184/3/4
f 188/3/5 186/3/5 185/3/5
f 189/3/5 186/3/5 188/3/5
f 192/3/5 188/3/5 187/3/5
f 192/3/5 190/3/5 189/3/5
f 192/3/5 189/3/5 188/3/5
f 193/3/5 190/3/5 192/3/5
f 195/3/5 192/3/5 191/3/5
f 195/3/5 194/3/5 193/3/5
f 195/3/5 193/3/5 192/3/5
f 196/3/5 194/3/5 195/3/5
f 197/3/5 194/3/5 196/3/5
f 198/3/5 194/3/5 197/3/5
f 199/3/5 197/3/5 196/3/5
f 200/3/5 197/3/5 199/3/5
f 201/3/5 197/3/5 200/3/5
f 202/3/5 197/3/5 201/3/5
f 203/3/5 201/3/5 200/3/5
f 204/3/5 201/3/5 203/3/5
f 205/3/6 206/3/6 208/3/6
f 208/3/6 206/3/6 209/3/6
f 207/3/6 208/3/6 212/3/6
f 209/3/6 210/3/6 212/3/6
f 208/3/6 209/3/6 212/3/6
f 212/3/6 210/3/6 213/3/6
f 213/3/6 210/3/6 214/3/6
f 214/3/6 210/3/6 215/3/6
f 215/3/6 210/3/6 216/3/6
f 216/3/6 210/3/6 217/3/6
f 211/3/6 212/3/6 219/3/6
f 212/3/6 213/3/6 219/3/6
f 219/3/6 213/3/6 220/3/6
f 217/3/6 218/3/6 221/3/6
f 216/3/6 217/3/6 221/3/6
f 221/3/6 218/3/6 222/3/6
f 211/3/6 219/3/6 223/3/6
f 222/3/6 218/3/6 224/3/6
f 211/3/6 223/3/6 225/3/6
f 224/3/6 218/3/6 226/3/6
f 211/3/6 225/3/6 227/3/6
f 226/3/6 218/3/6 230/3/6
f 227/3/6 228/3/6 231/3/6
f 211/3/6 227/3/6 231/3/6
f 231/3/6 228/3/6 232/3/6
f 232/3/6 228/3/6 233/3/6
f 229/3/6 230/3/6 236/3/6
f 230/3/6 218/3/6 237/3/6
f 236/3/6 230/3/6 237/3/6
f 237/3/6 218/3/6 238/3/6
f 234/3/6 235/3/6 239/3/6
f 235/3/6 236/3/6 239/3/6
f 236/3/6 237/3/6 239/3/6
f 233/3/6 234/3/6 239/3/6
f 232/3/6 233/3/6 239/3/6
f 239/3/6 237/3/6 240/3/6
f 240/3/6 237/3/6 241/3/6
f 241/3/6 237/3/6 242/3/6
f 240/3/6 241/3/6 243/3/6
f 243/3/6 241/3/6 244/3/6
f 245/3/6 246/3/6 247/3/6
f 247/3/6 246/3/6 248/3/6
f 249/3/6 250/3/6 252/3/6
f 252/3/6 250/3/6 253/3/6
f 251/3/6 252/3/6 255/3/6
f 255/3/6 252/3/6 256/3/6
f 253/3/6 254/3/6 257/3/6
f 257/3/6 254/3/6 258/3/6
f 256/3/6 257/3/6 259/3/6
f 259/3/6 257/3/6 260/3/6
