# MagicaVoxel @ Ephtracy

# group
o 

# material
mtllib skunk.mtl
usemtl palette

# normals
vn -1 0 0
vn 1 0 0
vn 0 0 1
vn 0 0 -1
vn 0 -1 0
vn 0 1 0

# texcoords
vt 0.0566406 0.5
vt 0.365234 0.5
vt 0.958984 0.5
vt 0.990234 0.5
vt 0.994141 0.5

# verts
v -1.2 0 0.1
v -1.2 0 -0.4
v -1.2 0.3 0.1
v -1.2 0.3 -0.4
v -1.2 1 0.1
v -1.2 1 -0.4
v -1.1 0.8 0.6
v -1.1 0.8 0.3
v -1.1 0.9 0.6
v -1.1 0.9 0.4
v -1.1 1.1 0.6
v -1.1 1.1 0.4
v -1.1 1.2 0.6
v -1.1 1.2 0.3
v -1.1 1.7 0
v -1.1 1.7 -0.2
v -1.1 2 0
v -1.1 2 -0.2
v -1 0 0.7
v -1 0 0.1
v -1 0 -0.4
v -1 0 -0.8
v -1 0.3 0.7
v -1 0.3 0.5
v -1 0.3 0.1
v -1 0.3 -0.4
v -1 0.8 0.5
v -1 0.8 0.3
v -1 1 0.1
v -1 1 -0.4
v -1 1.2 0.5
v -1 1.2 0.3
v -1 1.6 0.5
v -1 1.6 0.3
v -1 1.7 0
v -1 1.7 -0.2
v -1 1.8 0.5
v -1 1.8 0
v -1 1.8 -0.3
v -1 1.8 -0.8
v -1 1.9 -0.2
v -1 1.9 -0.3
v -0.9 1.8 0
v -0.9 1.8 -0.1
v -0.9 1.9 0
v -0.9 1.9 -0.1
v -0.8 0.4 -0.8
v -0.8 0.4 -1.1
v -0.8 1.8 -0.8
v -0.8 2.4 -0.8
v -0.8 2.4 -1.1
v -0.5 0.9 0.7
v -0.5 0.9 0.6
v -0.5 1.1 0.7
v -0.5 1.1 0.6
v -0.2 0 0.7
v -0.2 0 0.5
v -0.2 0.2 0.5
v -0.2 0.3 0.7
v -0.2 0.3 0.5
v 0 1.8 0
v 0 1.8 -0.3
v 0 1.9 -0.2
v 0 1.9 -0.3
v 0 2 0
v 0 2 -0.2
v 0.2 1.8 0
v 0.2 1.8 -0.1
v 0.2 1.9 0
v 0.2 1.9 -0.1
v -1 1.8 0
v -1 1.8 -0.1
v -1 1.9 0
v -1 1.9 -0.1
v -0.8 1.8 0
v -0.8 1.8 -0.3
v -0.8 1.9 -0.2
v -0.8 1.9 -0.3
v -0.8 2 0
v -0.8 2 -0.2
v -0.6 0 0.7
v -0.6 0 0.5
v -0.6 0.2 0.5
v -0.6 0.3 0.7
v -0.6 0.3 0.5
v -0.3 0.9 0.7
v -0.3 0.9 0.6
v -0.3 1.1 0.7
v -0.3 1.1 0.6
v 0 0.4 -0.8
v 0 0.4 -1.1
v 0 1.8 -0.8
v 0 2.4 -0.8
v 0 2.4 -1.1
v 0.0999999 1.8 0
v 0.0999999 1.8 -0.1
v 0.0999999 1.9 0
v 0.0999999 1.9 -0.1
v 0.2 0 0.7
v 0.2 0 0.1
v 0.2 0 -0.4
v 0.2 0 -0.8
v 0.2 0.2 0.1
v 0.2 0.2 -0.4
v 0.2 0.3 0.7
v 0.2 0.3 0.5
v 0.2 0.8 0.5
v 0.2 0.8 0.3
v 0.2 1 0.1
v 0.2 1 -0.4
v 0.2 1.2 0.5
v 0.2 1.2 0.3
v 0.2 1.6 0.5
v 0.2 1.6 0.3
v 0.2 1.7 0
v 0.2 1.7 -0.2
v 0.2 1.8 0.5
v 0.2 1.8 0
v 0.2 1.8 -0.3
v 0.2 1.8 -0.8
v 0.2 1.9 -0.2
v 0.2 1.9 -0.3
v 0.3 0.8 0.6
v 0.3 0.8 0.3
v 0.3 0.9 0.6
v 0.3 0.9 0.4
v 0.3 1.1 0.6
v 0.3 1.1 0.4
v 0.3 1.2 0.6
v 0.3 1.2 0.3
v 0.3 1.7 0
v 0.3 1.7 -0.2
v 0.3 2 0
v 0.3 2 -0.2
v 0.4 0 0.1
v 0.4 0 -0.4
v 0.4 0.2 0.1
v 0.4 0.2 -0.4
v 0.4 1 0.1
v 0.4 1 -0.4
v -1 0 0.7
v -1 0.3 0.7
v -0.6 0 0.7
v -0.6 0.3 0.7
v -0.5 0.9 0.7
v -0.5 1.1 0.7
v -0.3 0.9 0.7
v -0.3 1.1 0.7
v -0.2 0 0.7
v -0.2 0.3 0.7
v 0.2 0 0.7
v 0.2 0.3 0.7
v -1.1 0.8 0.6
v -1.1 0.9 0.6
v -1.1 1.1 0.6
v -1.1 1.2 0.6
v -0.9 0.9 0.6
v -0.9 1.1 0.6
v -0.7 0.9 0.6
v -0.7 1.2 0.6
v -0.5 0.9 0.6
v -0.5 1.1 0.6
v -0.3 0.9 0.6
v -0.3 1.1 0.6
v -0.1 0.9 0.6
v -0.1 1.2 0.6
v 0.0999999 0.9 0.6
v 0.0999999 1.1 0.6
v 0.3 0.8 0.6
v 0.3 0.9 0.6
v 0.3 1.1 0.6
v 0.3 1.2 0.6
v -1 0.3 0.5
v -1 0.8 0.5
v -1 1.2 0.5
v -1 1.6 0.5
v -1 1.8 0.5
v -0.8 0.3 0.5
v -0.8 0.8 0.5
v -0.8 1.3 0.5
v -0.8 1.4 0.5
v -0.8 1.5 0.5
v -0.7 1.2 0.5
v -0.7 1.4 0.5
v -0.7 1.5 0.5
v -0.6 0 0.5
v -0.6 0.2 0.5
v -0.6 0.3 0.5
v -0.6 1.3 0.5
v -0.6 1.5 0.5
v -0.5 1.2 0.5
v -0.5 1.6 0.5
v -0.3 1.2 0.5
v -0.3 1.6 0.5
v -0.2 0 0.5
v -0.2 0.2 0.5
v -0.2 0.3 0.5
v -0.2 1.3 0.5
v -0.2 1.4 0.5
v -0.2 1.5 0.5
v -0.1 1.2 0.5
v -0.1 1.4 0.5
v -0.1 1.5 0.5
v 0 0.3 0.5
v 0 0.8 0.5
v 0 1.3 0.5
v 0 1.5 0.5
v 0.2 0.3 0.5
v 0.2 0.8 0.5
v 0.2 1.2 0.5
v 0.2 1.6 0.5
v 0.2 1.8 0.5
v -1.2 0 0.1
v -1.2 0.3 0.1
v -1.2 1 0.1
v -1 0 0.1
v -1 0.3 0.1
v -1 1 0.1
v 0.2 0 0.1
v 0.2 0.2 0.1
v 0.2 1 0.1
v 0.4 0 0.1
v 0.4 0.2 0.1
v 0.4 1 0.1
v -1.1 1.7 0
v -1.1 2 0
v -1 1.7 0
v -1 1.8 0
v -1 1.9 0
v -0.9 1.8 0
v -0.9 1.9 0
v -0.8 1.8 0
v -0.8 2 0
v 0 1.8 0
v 0 2 0
v 0.0999999 1.8 0
v 0.0999999 1.9 0
v 0.2 1.7 0
v 0.2 1.8 0
v 0.2 1.9 0
v 0.3 1.7 0
v 0.3 2 0
v -1 1.8 -0.1
v -1 1.9 -0.1
v -0.9 1.8 -0.1
v -0.9 1.9 -0.1
v 0.0999999 1.8 -0.1
v 0.0999999 1.9 -0.1
v 0.2 1.8 -0.1
v 0.2 1.9 -0.1
v -0.8 1.8 -0.8
v -0.8 2.4 -0.8
v -0.7 1.8 -0.8
v -0.7 2.4 -0.8
v -0.5 1.8 -0.8
v -0.5 2.4 -0.8
v -0.3 1.8 -0.8
v -0.3 2.4 -0.8
v -0.1 1.8 -0.8
v -0.1 2.4 -0.8
v 0 1.8 -0.8
v 0 2.4 -0.8
v -1.1 0.8 0.3
v -1.1 1.2 0.3
v -1 0.8 0.3
v -1 1.2 0.3
v 0.2 0.8 0.3
v 0.2 1.2 0.3
v 0.3 0.8 0.3
v 0.3 1.2 0.3
v -1.1 1.7 -0.2
v -1.1 2 -0.2
v -1 1.7 -0.2
v -1 1.9 -0.2
v -0.8 1.9 -0.2
v -0.8 2 -0.2
v 0 1.9 -0.2
v 0 2 -0.2
v 0.2 1.7 -0.2
v 0.2 1.9 -0.2
v 0.3 1.7 -0.2
v 0.3 2 -0.2
v -1 1.8 -0.3
v -1 1.9 -0.3
v -0.8 1.8 -0.3
v -0.8 1.9 -0.3
v 0 1.8 -0.3
v 0 1.9 -0.3
v 0.2 1.8 -0.3
v 0.2 1.9 -0.3
v -1.2 0 -0.4
v -1.2 0.3 -0.4
v -1.2 1 -0.4
v -1 0 -0.4
v -1 0.3 -0.4
v -1 1 -0.4
v 0.2 0 -0.4
v 0.2 0.2 -0.4
v 0.2 1 -0.4
v 0.4 0 -0.4
v 0.4 0.2 -0.4
v 0.4 1 -0.4
v -1 0 -0.8
v -1 1.8 -0.8
v -0.8 0.4 -0.8
v -0.8 1.8 -0.8
v 0 0.4 -0.8
v 0 1.8 -0.8
v 0.2 0 -0.8
v 0.2 1.8 -0.8
v -0.8 0.4 -1.1
v -0.8 2.4 -1.1
v -0.7 1.5 -1.1
v -0.7 2.4 -1.1
v -0.5 1.7 -1.1
v -0.5 2.4 -1.1
v -0.3 1.7 -1.1
v -0.3 2.4 -1.1
v -0.1 1.5 -1.1
v -0.1 2.4 -1.1
v 0 0.4 -1.1
v 0 2.4 -1.1
v -1 0 0.7
v -0.6 0 0.7
v -0.2 0 0.7
v 0.2 0 0.7
v -0.6 0 0.5
v -0.2 0 0.5
v -1.2 0 0.1
v -1 0 0.1
v 0.2 0 0.1
v 0.4 0 0.1
v -1.2 0 -0.4
v -1 0 -0.4
v 0.2 0 -0.4
v 0.4 0 -0.4
v -1 0 -0.8
v 0.2 0 -0.8
v -0.8 0.4 -0.8
v 0 0.4 -0.8
v -0.8 0.4 -1.1
v 0 0.4 -1.1
v -1.1 0.8 0.6
v 0.3 0.8 0.6
v -1 0.8 0.5
v -0.8 0.8 0.5
v 0 0.8 0.5
v 0.2 0.8 0.5
v -1.1 0.8 0.3
v -1 0.8 0.3
v 0.2 0.8 0.3
v 0.3 0.8 0.3
v -0.5 0.9 0.7
v -0.3 0.9 0.7
v -0.5 0.9 0.6
v -0.3 0.9 0.6
v -1.1 1.7 0
v -1 1.7 0
v 0.2 1.7 0
v 0.3 1.7 0
v -1.1 1.7 -0.2
v -1 1.7 -0.2
v 0.2 1.7 -0.2
v 0.3 1.7 -0.2
v -1 1.9 0
v -0.9 1.9 0
v 0.0999999 1.9 0
v 0.2 1.9 0
v -1 1.9 -0.1
v -0.9 1.9 -0.1
v 0.0999999 1.9 -0.1
v 0.2 1.9 -0.1
v -1 0.3 0.7
v -0.6 0.3 0.7
v -0.2 0.3 0.7
v 0.2 0.3 0.7
v -1 0.3 0.5
v -0.8 0.3 0.5
v -0.6 0.3 0.5
v -0.2 0.3 0.5
v 0 0.3 0.5
v 0.2 0.3 0.5
v -1.2 1 0.1
v -1 1 0.1
v 0.2 1 0.1
v 0.4 1 0.1
v -1.2 1 -0.4
v -1 1 -0.4
v 0.2 1 -0.4
v 0.4 1 -0.4
v -0.5 1.1 0.7
v -0.3 1.1 0.7
v -0.5 1.1 0.6
v -0.3 1.1 0.6
v -1.1 1.2 0.6
v -0.7 1.2 0.6
v -0.1 1.2 0.6
v 0.3 1.2 0.6
v -1 1.2 0.5
v -0.7 1.2 0.5
v -0.5 1.2 0.5
v -0.3 1.2 0.5
v -0.1 1.2 0.5
v 0.2 1.2 0.5
v -1.1 1.2 0.3
v -1 1.2 0.3
v 0.2 1.2 0.3
v 0.3 1.2 0.3
v -1 1.8 0.5
v 0.2 1.8 0.5
v -0.8 1.8 0.3
v 0 1.8 0.3
v -1 1.8 0
v -0.9 1.8 0
v -0.8 1.8 0
v 0 1.8 0
v 0.0999999 1.8 0
v 0.2 1.8 0
v -1 1.8 -0.1
v -0.9 1.8 -0.1
v 0.0999999 1.8 -0.1
v 0.2 1.8 -0.1
v -1 1.8 -0.3
v -0.8 1.8 -0.3
v 0 1.8 -0.3
v 0.2 1.8 -0.3
v -1 1.8 -0.8
v -0.8 1.8 -0.8
v -0.7 1.8 -0.8
v -0.5 1.8 -0.8
v -0.3 1.8 -0.8
v -0.1 1.8 -0.8
v 0 1.8 -0.8
v 0.2 1.8 -0.8
v -1 1.9 -0.2
v -0.8 1.9 -0.2
v 0 1.9 -0.2
v 0.2 1.9 -0.2
v -1 1.9 -0.3
v -0.8 1.9 -0.3
v 0 1.9 -0.3
v 0.2 1.9 -0.3
v -1.1 2 0
v -0.8 2 0
v 0 2 0
v 0.3 2 0
v -1.1 2 -0.2
v -0.8 2 -0.2
v 0 2 -0.2
v 0.3 2 -0.2
v -0.8 2.4 -0.8
v -0.7 2.4 -0.8
v -0.5 2.4 -0.8
v -0.3 2.4 -0.8
v -0.1 2.4 -0.8
v 0 2.4 -0.8
v -0.8 2.4 -1.1
v -0.7 2.4 -1.1
v -0.5 2.4 -1.1
v -0.3 2.4 -1.1
v -0.1 2.4 -1.1
v 0 2.4 -1.1

# faces
f 3/3/1 2/3/1 1/3/1
f 4/3/1 2/3/1 3/3/1
f 5/4/1 4/4/1 3/4/1
f 6/4/1 4/4/1 5/4/1
f 9/4/1 8/4/1 7/4/1
f 10/4/1 8/4/1 9/4/1
f 11/1/1 10/1/1 9/1/1
f 12/4/1 8/4/1 10/4/1
f 12/1/1 10/1/1 11/1/1
f 13/4/1 12/4/1 11/4/1
f 14/4/1 8/4/1 12/4/1
f 14/4/1 12/4/1 13/4/1
f 17/4/1 16/4/1 15/4/1
f 18/4/1 16/4/1 17/4/1
f 23/4/1 20/4/1 19/4/1
f 24/4/1 20/4/1 23/4/1
f 25/4/1 20/4/1 24/4/1
f 26/4/1 22/4/1 21/4/1
f 27/4/1 25/4/1 24/4/1
f 28/4/1 25/4/1 27/4/1
f 29/4/1 25/4/1 28/4/1
f 30/4/1 22/4/1 26/4/1
f 32/4/1 29/4/1 28/4/1
f 32/4/1 30/4/1 29/4/1
f 33/2/1 32/2/1 31/2/1
f 34/4/1 30/4/1 32/4/1
f 34/2/1 32/2/1 33/2/1
f 35/4/1 34/4/1 33/4/1
f 35/4/1 30/4/1 34/4/1
f 36/4/1 30/4/1 35/4/1
f 37/4/1 35/4/1 33/4/1
f 38/4/1 35/4/1 37/4/1
f 39/4/1 30/4/1 36/4/1
f 40/4/1 22/4/1 30/4/1
f 40/4/1 30/4/1 39/4/1
f 41/4/1 39/4/1 36/4/1
f 42/4/1 39/4/1 41/4/1
f 45/4/1 44/4/1 43/4/1
f 46/4/1 44/4/1 45/4/1
f 49/4/1 48/4/1 47/4/1
f 50/4/1 48/4/1 49/4/1
f 51/4/1 48/4/1 50/4/1
f 54/5/1 53/5/1 52/5/1
f 55/5/1 53/5/1 54/5/1
f 58/4/1 57/4/1 56/4/1
f 59/4/1 58/4/1 56/4/1
f 60/4/1 58/4/1 59/4/1
f 63/4/1 62/4/1 61/4/1
f 64/4/1 62/4/1 63/4/1
f 65/4/1 63/4/1 61/4/1
f 66/4/1 63/4/1 65/4/1
f 69/4/1 68/4/1 67/4/1
f 70/4/1 68/4/1 69/4/1
f 71/4/2 72/4/2 73/4/2
f 73/4/2 72/4/2 74/4/2
f 75/4/2 76/4/2 77/4/2
f 77/4/2 76/4/2 78/4/2
f 75/4/2 77/4/2 79/4/2
f 79/4/2 77/4/2 80/4/2
f 81/4/2 82/4/2 83/4/2
f 81/4/2 83/4/2 84/4/2
f 84/4/2 83/4/2 85/4/2
f 86/5/2 87/5/2 88/5/2
f 88/5/2 87/5/2 89/5/2
f 90/4/2 91/4/2 92/4/2
f 92/4/2 91/4/2 93/4/2
f 93/4/2 91/4/2 94/4/2
f 95/4/2 96/4/2 97/4/2
f 97/4/2 96/4/2 98/4/2
f 99/4/2 100/4/2 103/4/2
f 101/4/2 102/4/2 104/4/2
f 99/4/2 103/4/2 105/4/2
f 105/4/2 103/4/2 106/4/2
f 106/4/2 103/4/2 107/4/2
f 107/4/2 103/4/2 108/4/2
f 108/4/2 103/4/2 109/4/2
f 104/4/2 102/4/2 110/4/2
f 108/4/2 109/4/2 112/4/2
f 109/4/2 110/4/2 112/4/2
f 111/2/2 112/2/2 113/2/2
f 112/4/2 110/4/2 114/4/2
f 113/2/2 112/2/2 114/2/2
f 113/4/2 114/4/2 115/4/2
f 114/4/2 110/4/2 115/4/2
f 115/4/2 110/4/2 116/4/2
f 113/4/2 115/4/2 117/4/2
f 117/4/2 115/4/2 118/4/2
f 116/4/2 110/4/2 119/4/2
f 110/4/2 102/4/2 120/4/2
f 119/4/2 110/4/2 120/4/2
f 116/4/2 119/4/2 121/4/2
f 121/4/2 119/4/2 122/4/2
f 123/4/2 124/4/2 125/4/2
f 125/4/2 124/4/2 126/4/2
f 125/1/2 126/1/2 127/1/2
f 126/4/2 124/4/2 128/4/2
f 127/1/2 126/1/2 128/1/2
f 127/4/2 128/4/2 129/4/2
f 128/4/2 124/4/2 130/4/2
f 129/4/2 128/4/2 130/4/2
f 131/4/2 132/4/2 133/4/2
f 133/4/2 132/4/2 134/4/2
f 135/3/2 136/3/2 137/3/2
f 137/3/2 136/3/2 138/3/2
f 137/4/2 138/4/2 139/4/2
f 139/4/2 138/4/2 140/4/2
f 143/4/3 142/4/3 141/4/3
f 144/4/3 142/4/3 143/4/3
f 147/5/3 146/5/3 145/5/3
f 148/5/3 146/5/3 147/5/3
f 151/4/3 150/4/3 149/4/3
f 152/4/3 150/4/3 151/4/3
f 157/4/3 154/4/3 153/4/3
f 157/1/3 155/1/3 154/1/3
f 158/4/3 156/4/3 155/4/3
f 158/1/3 155/1/3 157/1/3
f 159/4/3 157/4/3 153/4/3
f 159/4/3 158/4/3 157/4/3
f 160/4/3 156/4/3 158/4/3
f 160/4/3 158/4/3 159/4/3
f 161/4/3 159/4/3 153/4/3
f 161/3/3 160/3/3 159/3/3
f 162/3/3 160/3/3 161/3/3
f 163/4/3 161/4/3 153/4/3
f 164/3/3 160/3/3 162/3/3
f 165/4/3 163/4/3 153/4/3
f 165/3/3 164/3/3 163/3/3
f 166/3/3 160/3/3 164/3/3
f 166/3/3 164/3/3 165/3/3
f 167/4/3 165/4/3 153/4/3
f 167/4/3 166/4/3 165/4/3
f 168/4/3 166/4/3 167/4/3
f 169/4/3 167/4/3 153/4/3
f 170/1/3 168/1/3 167/1/3
f 170/4/3 167/4/3 169/4/3
f 171/4/3 166/4/3 168/4/3
f 171/1/3 168/1/3 170/1/3
f 172/4/3 166/4/3 171/4/3
f 178/4/3 174/4/3 173/4/3
f 179/4/3 174/4/3 178/4/3
f 180/2/3 176/2/3 175/2/3
f 181/2/3 176/2/3 180/2/3
f 182/2/3 176/2/3 181/2/3
f 183/2/3 180/2/3 175/2/3
f 184/5/3 181/5/3 180/5/3
f 184/3/3 182/3/3 181/3/3
f 185/2/3 176/2/3 182/2/3
f 185/3/3 182/3/3 184/3/3
f 188/3/3 179/3/3 178/3/3
f 189/5/3 184/5/3 180/5/3
f 189/2/3 180/2/3 183/2/3
f 189/5/3 185/5/3 184/5/3
f 190/2/3 176/2/3 185/2/3
f 190/5/3 185/5/3 189/5/3
f 191/2/3 189/2/3 183/2/3
f 191/2/3 190/2/3 189/2/3
f 192/4/3 177/4/3 176/4/3
f 192/2/3 190/2/3 191/2/3
f 192/2/3 176/2/3 190/2/3
f 193/3/3 192/3/3 191/3/3
f 194/4/3 177/4/3 192/4/3
f 194/3/3 192/3/3 193/3/3
f 195/4/3 187/4/3 186/4/3
f 196/3/3 188/3/3 187/3/3
f 196/4/3 187/4/3 195/4/3
f 197/3/3 179/3/3 188/3/3
f 197/3/3 188/3/3 196/3/3
f 198/2/3 194/2/3 193/2/3
f 199/2/3 194/2/3 198/2/3
f 200/2/3 194/2/3 199/2/3
f 201/2/3 198/2/3 193/2/3
f 202/3/3 200/3/3 199/3/3
f 202/5/3 199/5/3 198/5/3
f 203/2/3 194/2/3 200/2/3
f 203/3/3 200/3/3 202/3/3
f 204/3/3 179/3/3 197/3/3
f 205/3/3 179/3/3 204/3/3
f 206/5/3 202/5/3 198/5/3
f 206/2/3 198/2/3 201/2/3
f 206/5/3 203/5/3 202/5/3
f 207/2/3 194/2/3 203/2/3
f 207/5/3 203/5/3 206/5/3
f 208/4/3 205/4/3 204/4/3
f 209/4/3 205/4/3 208/4/3
f 210/2/3 206/2/3 201/2/3
f 210/2/3 207/2/3 206/2/3
f 211/4/3 177/4/3 194/4/3
f 211/2/3 207/2/3 210/2/3
f 211/2/3 194/2/3 207/2/3
f 212/4/3 177/4/3 211/4/3
f 216/3/3 214/3/3 213/3/3
f 217/4/3 215/4/3 214/4/3
f 217/3/3 214/3/3 216/3/3
f 218/4/3 215/4/3 217/4/3
f 222/3/3 220/3/3 219/3/3
f 223/4/3 221/4/3 220/4/3
f 223/3/3 220/3/3 222/3/3
f 224/4/3 221/4/3 223/4/3
f 227/4/3 226/4/3 225/4/3
f 228/4/3 226/4/3 227/4/3
f 229/4/3 226/4/3 228/4/3
f 231/4/3 226/4/3 229/4/3
f 232/4/3 231/4/3 230/4/3
f 233/4/3 226/4/3 231/4/3
f 233/4/3 231/4/3 232/4/3
f 236/4/3 235/4/3 234/4/3
f 237/4/3 235/4/3 236/4/3
f 240/4/3 235/4/3 237/4/3
f 241/4/3 239/4/3 238/4/3
f 241/4/3 240/4/3 239/4/3
f 242/4/3 235/4/3 240/4/3
f 242/4/3 240/4/3 241/4/3
f 245/5/3 244/5/3 243/5/3
f 246/5/3 244/5/3 245/5/3
f 249/5/3 248/5/3 247/5/3
f 250/5/3 248/5/3 249/5/3
f 253/4/3 252/4/3 251/4/3
f 254/4/3 252/4/3 253/4/3
f 255/3/3 254/3/3 253/3/3
f 256/3/3 254/3/3 255/3/3
f 257/4/3 256/4/3 255/4/3
f 258/4/3 256/4/3 257/4/3
f 259/3/3 258/3/3 257/3/3
f 260/3/3 258/3/3 259/3/3
f 261/4/3 260/4/3 259/4/3
f 262/4/3 260/4/3 261/4/3
f 263/4/4 264/4/4 265/4/4
f 265/4/4 264/4/4 266/4/4
f 267/4/4 268/4/4 269/4/4
f 269/4/4 268/4/4 270/4/4
f 271/4/4 272/4/4 273/4/4
f 273/4/4 272/4/4 274/4/4
f 274/4/4 272/4/4 275/4/4
f 275/4/4 272/4/4 276/4/4
f 277/4/4 278/4/4 280/4/4
f 279/4/4 280/4/4 281/4/4
f 280/4/4 278/4/4 282/4/4
f 281/4/4 280/4/4 282/4/4
f 283/4/4 284/4/4 285/4/4
f 285/4/4 284/4/4 286/4/4
f 287/4/4 288/4/4 289/4/4
f 289/4/4 288/4/4 290/4/4
f 291/3/4 292/3/4 294/3/4
f 292/4/4 293/4/4 295/4/4
f 294/3/4 292/3/4 295/3/4
f 295/4/4 293/4/4 296/4/4
f 297/3/4 298/3/4 300/3/4
f 298/4/4 299/4/4 301/4/4
f 300/3/4 298/3/4 301/3/4
f 301/4/4 299/4/4 302/4/4
f 303/4/4 304/4/4 305/4/4
f 305/4/4 304/4/4 306/4/4
f 303/4/4 305/4/4 307/4/4
f 303/4/4 307/4/4 309/4/4
f 307/4/4 308/4/4 309/4/4
f 309/4/4 308/4/4 310/4/4
f 311/4/4 312/4/4 313/4/4
f 313/4/4 312/4/4 314/4/4
f 313/3/4 314/3/4 315/3/4
f 315/3/4 314/3/4 316/3/4
f 313/3/4 315/3/4 317/3/4
f 315/4/4 316/4/4 317/4/4
f 317/4/4 316/4/4 318/4/4
f 311/4/4 313/4/4 319/4/4
f 313/3/4 317/3/4 319/3/4
f 317/3/4 318/3/4 319/3/4
f 319/3/4 318/3/4 320/3/4
f 311/4/4 319/4/4 321/4/4
f 319/4/4 320/4/4 321/4/4
f 321/4/4 320/4/4 322/4/4
f 327/4/5 324/4/5 323/4/5
f 328/4/5 326/4/5 325/4/5
f 330/4/5 327/4/5 323/4/5
f 330/4/5 328/4/5 327/4/5
f 331/4/5 326/4/5 328/4/5
f 331/4/5 328/4/5 330/4/5
f 333/3/5 330/3/5 329/3/5
f 334/4/5 331/4/5 330/4/5
f 334/3/5 330/3/5 333/3/5
f 335/3/5 332/3/5 331/3/5
f 335/4/5 331/4/5 334/4/5
f 336/3/5 332/3/5 335/3/5
f 337/4/5 335/4/5 334/4/5
f 338/4/5 335/4/5 337/4/5
f 341/4/5 340/4/5 339/4/5
f 342/4/5 340/4/5 341/4/5
f 345/4/5 344/4/5 343/4/5
f 346/4/5 344/4/5 345/4/5
f 347/4/5 344/4/5 346/4/5
f 348/4/5 344/4/5 347/4/5
f 349/4/5 345/4/5 343/4/5
f 350/4/5 345/4/5 349/4/5
f 351/4/5 344/4/5 348/4/5
f 352/4/5 344/4/5 351/4/5
f 355/5/5 354/5/5 353/5/5
f 356/5/5 354/5/5 355/5/5
f 361/4/5 358/4/5 357/4/5
f 362/4/5 358/4/5 361/4/5
f 363/4/5 360/4/5 359/4/5
f 364/4/5 360/4/5 363/4/5
f 369/4/5 366/4/5 365/4/5
f 370/4/5 366/4/5 369/4/5
f 371/4/5 368/4/5 367/4/5
f 372/4/5 368/4/5 371/4/5
f 373/4/6 374/4/6 377/4/6
f 377/4/6 374/4/6 378/4/6
f 378/4/6 374/4/6 379/4/6
f 375/4/6 376/4/6 380/4/6
f 380/4/6 376/4/6 381/4/6
f 381/4/6 376/4/6 382/4/6
f 383/4/6 384/4/6 387/4/6
f 387/4/6 384/4/6 388/4/6
f 385/4/6 386/4/6 389/4/6
f 389/4/6 386/4/6 390/4/6
f 391/5/6 392/5/6 393/5/6
f 393/5/6 392/5/6 394/5/6
f 395/4/6 396/4/6 399/4/6
f 396/3/6 397/3/6 400/3/6
f 399/4/6 396/4/6 400/4/6
f 400/3/6 397/3/6 401/3/6
f 401/3/6 397/3/6 402/3/6
f 397/4/6 398/4/6 403/4/6
f 402/3/6 397/3/6 403/3/6
f 403/4/6 398/4/6 404/4/6
f 395/4/6 399/4/6 405/4/6
f 405/4/6 399/4/6 406/4/6
f 404/4/6 398/4/6 407/4/6
f 407/4/6 398/4/6 408/4/6
f 409/4/6 410/4/6 411/4/6
f 411/4/6 410/4/6 412/4/6
f 409/4/6 411/4/6 413/4/6
f 413/4/6 411/4/6 414/4/6
f 411/3/6 412/3/6 415/3/6
f 414/4/6 411/4/6 415/4/6
f 412/4/6 410/4/6 416/4/6
f 415/3/6 412/3/6 416/3/6
f 416/4/6 410/4/6 417/4/6
f 417/4/6 410/4/6 418/4/6
f 413/4/6 414/4/6 419/4/6
f 419/4/6 414/4/6 420/4/6
f 417/4/6 418/4/6 421/4/6
f 421/4/6 418/4/6 422/4/6
f 415/3/6 416/3/6 424/3/6
f 424/3/6 416/3/6 425/3/6
f 423/4/6 424/4/6 427/4/6
f 424/3/6 425/3/6 428/3/6
f 427/4/6 424/4/6 428/4/6
f 428/3/6 425/3/6 429/3/6
f 429/3/6 425/3/6 430/3/6
f 430/3/6 425/3/6 431/3/6
f 431/3/6 425/3/6 432/3/6
f 425/4/6 426/4/6 433/4/6
f 432/3/6 425/3/6 433/3/6
f 433/4/6 426/4/6 434/4/6
f 435/4/6 436/4/6 439/4/6
f 439/4/6 436/4/6 440/4/6
f 437/4/6 438/4/6 441/4/6
f 441/4/6 438/4/6 442/4/6
f 443/4/6 444/4/6 447/4/6
f 447/4/6 444/4/6 448/4/6
f 445/4/6 446/4/6 449/4/6
f 449/4/6 446/4/6 450/4/6
f 451/4/6 452/4/6 457/4/6
f 452/3/6 453/3/6 458/3/6
f 457/4/6 452/4/6 458/4/6
f 453/4/6 454/4/6 459/4/6
f 458/3/6 453/3/6 459/3/6
f 454/3/6 455/3/6 460/3/6
f 459/4/6 454/4/6 460/4/6
f 455/4/6 456/4/6 461/4/6
f 460/3/6 455/3/6 461/3/6
f 461/4/6 456/4/6 462/4/6
