# MagicaVoxel @ Ephtracy

# group
o 

# material
mtllib pig.mtl
usemtl palette

# normals
vn -1 0 0
vn 1 0 0
vn 0 0 1
vn 0 0 -1
vn 0 -1 0
vn 0 1 0

# texcoords
vt 0.0292969 0.5
vt 0.0566406 0.5
vt 0.990234 0.5

# verts
v -0.9 1.5 0.9
v -0.9 1.5 0.8
v -0.9 1.6 0.9
v -0.9 1.6 0.8
v -0.8 1.6 0.9
v -0.8 1.6 0.8
v -0.8 1.7 0.9
v -0.8 1.7 0.8
v -0.7 1.1 1.3
v -0.7 1.1 1.1
v -0.7 1.1 0.6
v -0.7 1.1 0.4
v -0.7 1.2 1.3
v -0.7 1.2 1.1
v -0.7 1.2 0.6
v -0.7 1.2 0.4
v -0.7 1.4 1.1
v -0.7 1.4 0.6
v -0.7 1.5 0.9
v -0.7 1.5 0.8
v -0.7 1.7 0.9
v -0.7 1.7 0.8
v -0.7 2.1 1.3
v -0.7 2.1 0.4
v 0.1 1.1 1.3
v 0.1 1.1 1.1
v 0.1 1.1 0.6
v 0.1 1.1 0.4
v 0.1 1.2 1.3
v 0.1 1.2 1.1
v 0.1 1.2 0.6
v 0.1 1.2 0.4
v 0.1 1.4 1.3
v 0.1 1.4 1.1
v 0.1 1.4 0.6
v 0.1 1.4 0.4
v 0.4 2.1 1.3
v 0.4 2.1 1.1
v 0.4 2.1 0.6
v 0.4 2.1 0.4
v 0.4 2.3 1.3
v 0.4 2.3 1.1
v 0.4 2.3 0.6
v 0.4 2.3 0.4
v -0.5 1.1 1.3
v -0.5 1.1 1.1
v -0.5 1.1 0.6
v -0.5 1.1 0.4
v -0.5 1.2 1.3
v -0.5 1.2 1.1
v -0.5 1.2 0.6
v -0.5 1.2 0.4
v -0.5 1.4 1.3
v -0.5 1.4 1.1
v -0.5 1.4 0.6
v -0.5 1.4 0.4
v 0.3 1.1 1.3
v 0.3 1.1 1.1
v 0.3 1.1 0.6
v 0.3 1.1 0.4
v 0.3 1.2 1.3
v 0.3 1.2 1.1
v 0.3 1.2 0.6
v 0.3 1.2 0.4
v 0.3 1.4 1.3
v 0.3 1.4 1.1
v 0.3 1.4 0.6
v 0.3 1.4 0.4
v 0.5 2.1 1.3
v 0.5 2.1 1.1
v 0.5 2.1 0.6
v 0.5 2.1 0.4
v 0.5 2.3 1.3
v 0.5 2.3 1.1
v 0.5 2.3 0.6
v 0.5 2.3 0.4
v 0.6 1.4 1.3
v 0.6 1.4 0.4
v 0.6 1.5 1.1
v 0.6 1.5 0.6
v 0.6 1.6 1
v 0.6 1.6 0.9
v 0.6 1.6 0.8
v 0.6 1.6 0.7
v 0.6 1.7 1
v 0.6 1.7 0.9
v 0.6 1.7 0.8
v 0.6 1.7 0.7
v 0.6 1.8 1.2
v 0.6 1.8 1.1
v 0.6 1.8 1
v 0.6 1.8 0.7
v 0.6 1.8 0.6
v 0.6 1.8 0.5
v 0.6 2 1.2
v 0.6 2 1
v 0.6 2 0.7
v 0.6 2 0.5
v 0.6 2.1 1.3
v 0.6 2.1 0.4
v 0.7 1.5 1.1
v 0.7 1.5 0.6
v 0.7 1.6 1
v 0.7 1.6 0.9
v 0.7 1.6 0.8
v 0.7 1.6 0.7
v 0.7 1.7 1
v 0.7 1.7 0.9
v 0.7 1.7 0.8
v 0.7 1.7 0.7
v 0.7 1.8 1.1
v 0.7 1.8 0.6
v -0.7 1.1 1.3
v -0.7 1.2 1.3
v -0.7 2.1 1.3
v -0.5 1.1 1.3
v -0.5 1.2 1.3
v -0.5 1.4 1.3
v 0.1 1.1 1.3
v 0.1 1.2 1.3
v 0.1 1.4 1.3
v 0.3 1.1 1.3
v 0.3 1.2 1.3
v 0.3 1.4 1.3
v 0.4 2.1 1.3
v 0.4 2.3 1.3
v 0.5 2.1 1.3
v 0.5 2.3 1.3
v 0.6 1.4 1.3
v 0.6 2.1 1.3
v 0.6 1.5 1.1
v 0.6 1.8 1.1
v 0.7 1.5 1.1
v 0.7 1.8 1.1
v -0.9 1.5 0.9
v -0.9 1.6 0.9
v -0.8 1.6 0.9
v -0.8 1.7 0.9
v -0.7 1.5 0.9
v -0.7 1.7 0.9
v 0.6 1.6 0.9
v 0.6 1.7 0.9
v 0.7 1.6 0.9
v 0.7 1.7 0.9
v 0.6 1.6 0.7
v 0.6 1.7 0.7
v 0.7 1.6 0.7
v 0.7 1.7 0.7
v -0.7 1.1 0.6
v -0.7 1.2 0.6
v -0.7 1.4 0.6
v -0.5 1.1 0.6
v -0.5 1.2 0.6
v -0.5 1.4 0.6
v 0.1 1.1 0.6
v 0.1 1.2 0.6
v 0.1 1.4 0.6
v 0.3 1.1 0.6
v 0.3 1.2 0.6
v 0.3 1.4 0.6
v 0.4 2.1 0.6
v 0.4 2.3 0.6
v 0.5 2.1 0.6
v 0.5 2.3 0.6
v -0.7 1.1 1.1
v -0.7 1.2 1.1
v -0.7 1.4 1.1
v -0.5 1.1 1.1
v -0.5 1.2 1.1
v -0.5 1.4 1.1
v 0.1 1.1 1.1
v 0.1 1.2 1.1
v 0.1 1.4 1.1
v 0.3 1.1 1.1
v 0.3 1.2 1.1
v 0.3 1.4 1.1
v 0.4 2.1 1.1
v 0.4 2.3 1.1
v 0.5 2.1 1.1
v 0.5 2.3 1.1
v 0.6 1.6 1
v 0.6 1.7 1
v 0.7 1.6 1
v 0.7 1.7 1
v -0.9 1.5 0.8
v -0.9 1.6 0.8
v -0.8 1.6 0.8
v -0.8 1.7 0.8
v -0.7 1.5 0.8
v -0.7 1.7 0.8
v 0.6 1.6 0.8
v 0.6 1.7 0.8
v 0.7 1.6 0.8
v 0.7 1.7 0.8
v 0.6 1.5 0.6
v 0.6 1.8 0.6
v 0.7 1.5 0.6
v 0.7 1.8 0.6
v -0.7 1.1 0.4
v -0.7 1.2 0.4
v -0.7 2.1 0.4
v -0.5 1.1 0.4
v -0.5 1.2 0.4
v -0.5 1.4 0.4
v 0.1 1.1 0.4
v 0.1 1.2 0.4
v 0.1 1.4 0.4
v 0.3 1.1 0.4
v 0.3 1.2 0.4
v 0.3 1.4 0.4
v 0.4 2.1 0.4
v 0.4 2.3 0.4
v 0.5 2.1 0.4
v 0.5 2.3 0.4
v 0.6 1.4 0.4
v 0.6 2.1 0.4
v -0.7 1.1 1.3
v -0.5 1.1 1.3
v 0.1 1.1 1.3
v 0.3 1.1 1.3
v -0.7 1.1 1.1
v -0.5 1.1 1.1
v 0.1 1.1 1.1
v 0.3 1.1 1.1
v -0.7 1.1 0.6
v -0.5 1.1 0.6
v 0.1 1.1 0.6
v 0.3 1.1 0.6
v -0.7 1.1 0.4
v -0.5 1.1 0.4
v 0.1 1.1 0.4
v 0.3 1.1 0.4
v -0.5 1.4 1.3
v 0.1 1.4 1.3
v 0.3 1.4 1.3
v 0.6 1.4 1.3
v -0.7 1.4 1.1
v -0.5 1.4 1.1
v 0.1 1.4 1.1
v 0.3 1.4 1.1
v -0.7 1.4 0.6
v -0.5 1.4 0.6
v 0.1 1.4 0.6
v 0.3 1.4 0.6
v -0.5 1.4 0.4
v 0.1 1.4 0.4
v 0.3 1.4 0.4
v 0.6 1.4 0.4
v 0.6 1.5 1.1
v 0.7 1.5 1.1
v -0.9 1.5 0.9
v -0.7 1.5 0.9
v -0.9 1.5 0.8
v -0.7 1.5 0.8
v 0.6 1.5 0.6
v 0.7 1.5 0.6
v 0.6 1.7 1
v 0.7 1.7 1
v 0.6 1.7 0.9
v 0.7 1.7 0.9
v 0.6 1.7 0.8
v 0.7 1.7 0.8
v 0.6 1.7 0.7
v 0.7 1.7 0.7
v 0.6 1.6 1
v 0.7 1.6 1
v -0.9 1.6 0.9
v -0.8 1.6 0.9
v 0.6 1.6 0.9
v 0.7 1.6 0.9
v -0.9 1.6 0.8
v -0.8 1.6 0.8
v 0.6 1.6 0.8
v 0.7 1.6 0.8
v 0.6 1.6 0.7
v 0.7 1.6 0.7
v -0.8 1.7 0.9
v -0.7 1.7 0.9
v -0.8 1.7 0.8
v -0.7 1.7 0.8
v 0.6 1.8 1.1
v 0.7 1.8 1.1
v 0.6 1.8 1
v 0.6 1.8 0.7
v 0.6 1.8 0.6
v 0.7 1.8 0.6
v -0.7 2.1 1.3
v 0.4 2.1 1.3
v 0.5 2.1 1.3
v 0.6 2.1 1.3
v 0.4 2.1 1.1
v 0.5 2.1 1.1
v 0.4 2.1 0.6
v 0.5 2.1 0.6
v -0.7 2.1 0.4
v 0.4 2.1 0.4
v 0.5 2.1 0.4
v 0.6 2.1 0.4
v 0.4 2.3 1.3
v 0.5 2.3 1.3
v 0.4 2.3 1.1
v 0.5 2.3 1.1
v 0.4 2.3 0.6
v 0.5 2.3 0.6
v 0.4 2.3 0.4
v 0.5 2.3 0.4

# faces
f 3/1/1 2/1/1 1/1/1
f 4/1/1 2/1/1 3/1/1
f 7/1/1 6/1/1 5/1/1
f 8/1/1 6/1/1 7/1/1
f 13/3/1 10/3/1 9/3/1
f 14/3/1 10/3/1 13/3/1
f 15/3/1 12/3/1 11/3/1
f 16/3/1 12/3/1 15/3/1
f 17/1/1 14/1/1 13/1/1
f 18/1/1 16/1/1 15/1/1
f 19/1/1 18/1/1 17/1/1
f 20/1/1 18/1/1 19/1/1
f 21/1/1 19/1/1 17/1/1
f 22/1/1 18/1/1 20/1/1
f 23/1/1 17/1/1 13/1/1
f 23/1/1 22/1/1 21/1/1
f 23/1/1 21/1/1 17/1/1
f 24/1/1 18/1/1 22/1/1
f 24/1/1 22/1/1 23/1/1
f 24/1/1 16/1/1 18/1/1
f 29/3/1 26/3/1 25/3/1
f 30/3/1 26/3/1 29/3/1
f 31/3/1 28/3/1 27/3/1
f 32/3/1 28/3/1 31/3/1
f 33/1/1 30/1/1 29/1/1
f 34/1/1 30/1/1 33/1/1
f 35/1/1 32/1/1 31/1/1
f 36/1/1 32/1/1 35/1/1
f 41/1/1 38/1/1 37/1/1
f 42/1/1 38/1/1 41/1/1
f 43/1/1 40/1/1 39/1/1
f 44/1/1 40/1/1 43/1/1
f 45/3/2 46/3/2 49/3/2
f 49/3/2 46/3/2 50/3/2
f 47/3/2 48/3/2 51/3/2
f 51/3/2 48/3/2 52/3/2
f 49/1/2 50/1/2 53/1/2
f 53/1/2 50/1/2 54/1/2
f 51/1/2 52/1/2 55/1/2
f 55/1/2 52/1/2 56/1/2
f 57/3/2 58/3/2 61/3/2
f 61/3/2 58/3/2 62/3/2
f 59/3/2 60/3/2 63/3/2
f 63/3/2 60/3/2 64/3/2
f 61/1/2 62/1/2 65/1/2
f 65/1/2 62/1/2 66/1/2
f 63/1/2 64/1/2 67/1/2
f 67/1/2 64/1/2 68/1/2
f 69/1/2 70/1/2 73/1/2
f 73/1/2 70/1/2 74/1/2
f 71/1/2 72/1/2 75/1/2
f 75/1/2 72/1/2 76/1/2
f 77/1/2 78/1/2 79/1/2
f 79/1/2 78/1/2 80/1/2
f 81/2/2 82/2/2 85/2/2
f 85/2/2 82/2/2 86/2/2
f 83/2/2 84/2/2 87/2/2
f 87/2/2 84/2/2 88/2/2
f 77/1/2 79/1/2 89/1/2
f 89/1/2 79/1/2 90/1/2
f 80/1/2 78/1/2 93/1/2
f 93/1/2 78/1/2 94/1/2
f 90/3/2 91/3/2 95/3/2
f 77/1/2 89/1/2 95/1/2
f 89/3/2 90/3/2 95/3/2
f 91/1/2 92/1/2 96/1/2
f 95/3/2 91/3/2 96/3/2
f 93/3/2 94/3/2 97/3/2
f 96/1/2 92/1/2 97/1/2
f 92/3/2 93/3/2 97/3/2
f 94/1/2 78/1/2 98/1/2
f 97/3/2 94/3/2 98/3/2
f 77/1/2 95/1/2 99/1/2
f 96/1/2 97/1/2 99/1/2
f 97/1/2 98/1/2 99/1/2
f 95/1/2 96/1/2 99/1/2
f 98/1/2 78/1/2 100/1/2
f 99/1/2 98/1/2 100/1/2
f 101/2/2 102/2/2 103/2/2
f 103/2/2 102/2/2 104/2/2
f 104/2/2 102/2/2 105/2/2
f 105/2/2 102/2/2 106/2/2
f 101/2/2 103/2/2 107/2/2
f 104/2/2 105/2/2 108/2/2
f 108/2/2 105/2/2 109/2/2
f 106/2/2 102/2/2 110/2/2
f 108/2/2 109/2/2 111/2/2
f 109/2/2 110/2/2 111/2/2
f 101/2/2 107/2/2 111/2/2
f 107/2/2 108/2/2 111/2/2
f 110/2/2 102/2/2 112/2/2
f 111/2/2 110/2/2 112/2/2
f 116/3/3 114/3/3 113/3/3
f 117/1/3 115/1/3 114/1/3
f 117/3/3 114/3/3 116/3/3
f 118/1/3 115/1/3 117/1/3
f 121/1/3 115/1/3 118/1/3
f 122/3/3 120/3/3 119/3/3
f 123/1/3 121/1/3 120/1/3
f 123/3/3 120/3/3 122/3/3
f 124/1/3 115/1/3 121/1/3
f 124/1/3 121/1/3 123/1/3
f 125/1/3 115/1/3 124/1/3
f 127/1/3 125/1/3 124/1/3
f 127/1/3 126/1/3 125/1/3
f 128/1/3 126/1/3 127/1/3
f 129/1/3 127/1/3 124/1/3
f 130/1/3 127/1/3 129/1/3
f 133/2/3 132/2/3 131/2/3
f 134/2/3 132/2/3 133/2/3
f 137/1/3 136/1/3 135/1/3
f 139/1/3 137/1/3 135/1/3
f 139/1/3 138/1/3 137/1/3
f 140/1/3 138/1/3 139/1/3
f 143/2/3 142/2/3 141/2/3
f 144/2/3 142/2/3 143/2/3
f 147/2/3 146/2/3 145/2/3
f 148/2/3 146/2/3 147/2/3
f 152/3/3 150/3/3 149/3/3
f 153/1/3 151/1/3 150/1/3
f 153/3/3 150/3/3 152/3/3
f 154/1/3 151/1/3 153/1/3
f 158/3/3 156/3/3 155/3/3
f 159/1/3 157/1/3 156/1/3
f 159/3/3 156/3/3 158/3/3
f 160/1/3 157/1/3 159/1/3
f 163/1/3 162/1/3 161/1/3
f 164/1/3 162/1/3 163/1/3
f 165/3/4 166/3/4 168/3/4
f 166/1/4 167/1/4 169/1/4
f 168/3/4 166/3/4 169/3/4
f 169/1/4 167/1/4 170/1/4
f 171/3/4 172/3/4 174/3/4
f 172/1/4 173/1/4 175/1/4
f 174/3/4 172/3/4 175/3/4
f 175/1/4 173/1/4 176/1/4
f 177/1/4 178/1/4 179/1/4
f 179/1/4 178/1/4 180/1/4
f 181/2/4 182/2/4 183/2/4
f 183/2/4 182/2/4 184/2/4
f 185/1/4 186/1/4 187/1/4
f 185/1/4 187/1/4 189/1/4
f 187/1/4 188/1/4 189/1/4
f 189/1/4 188/1/4 190/1/4
f 191/2/4 192/2/4 193/2/4
f 193/2/4 192/2/4 194/2/4
f 195/2/4 196/2/4 197/2/4
f 197/2/4 196/2/4 198/2/4
f 199/3/4 200/3/4 202/3/4
f 200/1/4 201/1/4 203/1/4
f 202/3/4 200/3/4 203/3/4
f 203/1/4 201/1/4 204/1/4
f 204/1/4 201/1/4 207/1/4
f 205/3/4 206/3/4 208/3/4
f 206/1/4 207/1/4 209/1/4
f 208/3/4 206/3/4 209/3/4
f 207/1/4 201/1/4 210/1/4
f 209/1/4 207/1/4 210/1/4
f 210/1/4 201/1/4 211/1/4
f 210/1/4 211/1/4 213/1/4
f 211/1/4 212/1/4 213/1/4
f 213/1/4 212/1/4 214/1/4
f 210/1/4 213/1/4 215/1/4
f 215/1/4 213/1/4 216/1/4
f 221/3/5 218/3/5 217/3/5
f 222/3/5 218/3/5 221/3/5
f 223/3/5 220/3/5 219/3/5
f 224/3/5 220/3/5 223/3/5
f 229/3/5 226/3/5 225/3/5
f 230/3/5 226/3/5 229/3/5
f 231/3/5 228/3/5 227/3/5
f 232/3/5 228/3/5 231/3/5
f 238/1/5 234/1/5 233/1/5
f 239/1/5 234/1/5 238/1/5
f 240/1/5 236/1/5 235/1/5
f 241/1/5 239/1/5 238/1/5
f 241/1/5 240/1/5 239/1/5
f 241/1/5 238/1/5 237/1/5
f 242/1/5 240/1/5 241/1/5
f 243/1/5 240/1/5 242/1/5
f 244/1/5 236/1/5 240/1/5
f 244/1/5 240/1/5 243/1/5
f 245/1/5 243/1/5 242/1/5
f 246/1/5 243/1/5 245/1/5
f 247/1/5 236/1/5 244/1/5
f 248/1/5 236/1/5 247/1/5
f 253/1/5 252/1/5 251/1/5
f 254/1/5 252/1/5 253/1/5
f 255/2/5 250/2/5 249/2/5
f 256/2/5 250/2/5 255/2/5
f 259/2/5 258/2/5 257/2/5
f 260/2/5 258/2/5 259/2/5
f 263/2/5 262/2/5 261/2/5
f 264/2/5 262/2/5 263/2/5
f 265/2/6 266/2/6 269/2/6
f 269/2/6 266/2/6 270/2/6
f 267/1/6 268/1/6 271/1/6
f 271/1/6 268/1/6 272/1/6
f 273/2/6 274/2/6 275/2/6
f 275/2/6 274/2/6 276/2/6
f 277/1/6 278/1/6 279/1/6
f 279/1/6 278/1/6 280/1/6
f 281/2/6 282/2/6 283/2/6
f 283/2/6 282/2/6 284/2/6
f 284/2/6 282/2/6 285/2/6
f 285/2/6 282/2/6 286/2/6
f 287/1/6 288/1/6 291/1/6
f 289/1/6 290/1/6 292/1/6
f 287/1/6 291/1/6 293/1/6
f 291/1/6 292/1/6 293/1/6
f 292/1/6 290/1/6 294/1/6
f 293/1/6 292/1/6 294/1/6
f 287/1/6 293/1/6 295/1/6
f 295/1/6 293/1/6 296/1/6
f 294/1/6 290/1/6 297/1/6
f 297/1/6 290/1/6 298/1/6
f 299/1/6 300/1/6 301/1/6
f 301/1/6 300/1/6 302/1/6
f 303/1/6 304/1/6 305/1/6
f 305/1/6 304/1/6 306/1/6
