# MagicaVoxel @ Ephtracy

# group
o 

# material
mtllib frog.mtl
usemtl palette

# normals
vn -1 0 0
vn 1 0 0
vn 0 0 1
vn 0 0 -1
vn 0 -1 0
vn 0 1 0

# texcoords
vt 0.0175781 0.5
vt 0.0214844 0.5
vt 0.251953 0.5
vt 0.626953 0.5
vt 0.900391 0.5
vt 0.962891 0.5
vt 0.994141 0.5

# verts
v -0.9 0 -5.96046e-08
v -0.9 0 -0.1
v -0.9 0.1 -5.96046e-08
v -0.9 0.1 -0.1
v -0.8 0 0.5
v -0.8 0 0.4
v -0.8 0 0.0999999
v -0.8 0 -5.96046e-08
v -0.8 0 -0.1
v -0.8 0 -0.2
v -0.8 0.1 0.5
v -0.8 0.1 0.4
v -0.8 0.1 0.0999999
v -0.8 0.1 -5.96046e-08
v -0.8 0.1 -0.1
v -0.8 0.1 -0.2
v -0.7 0 0.6
v -0.7 0 0.5
v -0.7 0 0.4
v -0.7 0 0.3
v -0.7 0 0.2
v -0.7 0 0.0999999
v -0.7 0 -0.2
v -0.7 0 -0.3
v -0.7 0.1 0.6
v -0.7 0.1 0.5
v -0.7 0.1 0.4
v -0.7 0.1 0.0999999
v -0.7 0.1 -5.96046e-08
v -0.7 0.1 -0.2
v -0.7 0.2 0.3
v -0.7 0.2 0.2
v -0.7 0.3 0.5
v -0.7 0.3 0.4
v -0.7 0.3 0.0999999
v -0.7 0.3 -5.96046e-08
v -0.7 0.3 -0.2
v -0.7 0.3 -0.3
v -0.7 0.4 0.5
v -0.7 0.4 0.4
v -0.7 0.4 0.3
v -0.7 0.4 -5.96046e-08
v -0.7 0.4 -0.2
v -0.7 0.5 0.4
v -0.7 0.5 0.3
v -0.7 0.6 0.5
v -0.7 0.6 0.4
v -0.7 0.6 0.3
v -0.7 0.6 0.2
v -0.7 0.6 -5.96046e-08
v -0.7 0.7 0.4
v -0.7 0.7 0.3
v -0.7 0.7 0.2
v -0.7 0.8 0.4
v -0.7 0.8 0.3
v -0.7 0.8 0.2
v -0.6 0 0.3
v -0.6 0 0.2
v -0.6 0.2 0.3
v -0.6 0.2 0.2
v -0.4 0 0.5
v -0.4 0 0.4
v -0.4 0.1 0.5
v -0.4 0.1 0.4
v -0.4 0.7 0.4
v -0.4 0.7 0.2
v -0.4 0.8 0.4
v -0.4 0.8 0.2
v -0.3 0 0.6
v -0.3 0 0.5
v -0.3 0.1 0.6
v -0.3 0.1 0.5
v -0.3 0.2 0.3
v -0.3 0.2 0.2
v -0.3 0.2 0.0999999
v -0.3 0.3 0.3
v -0.3 0.3 0.2
v -0.3 0.3 0.0999999
v -0.3 0.4 0.3
v -0.3 0.5 0.2
v -0.3 0.5 0.0999999
v -0.3 0.6 0.3
v -0.3 0.6 0.2
v -0.6 0 0.6
v -0.6 0 0.5
v -0.6 0.1 0.6
v -0.6 0.1 0.5
v -0.6 0.2 0.3
v -0.6 0.2 0.0999999
v -0.6 0.4 0.3
v -0.6 0.5 0.2
v -0.6 0.5 0.0999999
v -0.6 0.6 0.3
v -0.6 0.6 0.2
v -0.5 0 0.5
v -0.5 0 0.4
v -0.5 0.1 0.5
v -0.5 0.1 0.4
v -0.5 0.7 0.4
v -0.5 0.7 0.2
v -0.5 0.8 0.4
v -0.5 0.8 0.2
v -0.3 0 0.3
v -0.3 0 0.2
v -0.3 0.1 0.2
v -0.3 0.2 0.3
v -0.3 0.2 0.2
v -0.2 0 0.6
v -0.2 0 0.5
v -0.2 0 0.4
v -0.2 0 0.3
v -0.2 0 0.2
v -0.2 0 0.0999999
v -0.2 0 -0.2
v -0.2 0 -0.3
v -0.2 0.1 0.6
v -0.2 0.1 0.5
v -0.2 0.1 0.4
v -0.2 0.1 0.2
v -0.2 0.1 0.0999999
v -0.2 0.1 -0.2
v -0.2 0.1 -0.3
v -0.2 0.2 0.3
v -0.2 0.2 0.2
v -0.2 0.2 -0.2
v -0.2 0.2 -0.3
v -0.2 0.3 0.5
v -0.2 0.3 0.4
v -0.2 0.3 0.2
v -0.2 0.3 0.0999999
v -0.2 0.3 -5.96046e-08
v -0.2 0.3 -0.2
v -0.2 0.3 -0.3
v -0.2 0.4 0.5
v -0.2 0.4 0.4
v -0.2 0.4 0.3
v -0.2 0.4 0.0999999
v -0.2 0.4 -5.96046e-08
v -0.2 0.4 -0.2
v -0.2 0.5 0.4
v -0.2 0.5 0.3
v -0.2 0.5 0.2
v -0.2 0.5 0.0999999
v -0.2 0.6 0.5
v -0.2 0.6 0.4
v -0.2 0.6 0.3
v -0.2 0.6 0.2
v -0.2 0.6 0.0999999
v -0.2 0.6 -5.96046e-08
v -0.2 0.7 0.4
v -0.2 0.7 0.3
v -0.2 0.8 0.4
v -0.2 0.8 0.2
v -0.1 0 0.5
v -0.1 0 0.4
v -0.1 0 0.0999999
v -0.1 0 -5.96046e-08
v -0.1 0 -0.1
v -0.1 0 -0.2
v -0.1 0.1 0.5
v -0.1 0.1 0.4
v -0.1 0.1 0.0999999
v -0.1 0.1 -5.96046e-08
v -0.1 0.1 -0.1
v -0.1 0.1 -0.2
v 0 0 -5.96046e-08
v 0 0 -0.1
v 0 0.1 -5.96046e-08
v 0 0.1 -0.1
v -0.7 0 0.6
v -0.7 0.1 0.6
v -0.6 0 0.6
v -0.6 0.1 0.6
v -0.3 0 0.6
v -0.3 0.1 0.6
v -0.2 0 0.6
v -0.2 0.1 0.6
v -0.8 0 0.5
v -0.8 0.1 0.5
v -0.7 0 0.5
v -0.7 0.1 0.5
v -0.7 0.3 0.5
v -0.7 0.4 0.5
v -0.7 0.6 0.5
v -0.6 0 0.5
v -0.6 0.1 0.5
v -0.5 0 0.5
v -0.5 0.1 0.5
v -0.4 0 0.5
v -0.4 0.1 0.5
v -0.3 0 0.5
v -0.3 0.1 0.5
v -0.2 0 0.5
v -0.2 0.1 0.5
v -0.2 0.3 0.5
v -0.2 0.4 0.5
v -0.2 0.6 0.5
v -0.1 0 0.5
v -0.1 0.1 0.5
v -0.7 0.1 0.4
v -0.7 0.3 0.4
v -0.7 0.6 0.4
v -0.7 0.7 0.4
v -0.7 0.8 0.4
v -0.6 0.1 0.4
v -0.6 0.2 0.4
v -0.6 0.3 0.4
v -0.6 0.6 0.4
v -0.6 0.7 0.4
v -0.5 0 0.4
v -0.5 0.1 0.4
v -0.5 0.2 0.4
v -0.5 0.6 0.4
v -0.5 0.7 0.4
v -0.5 0.8 0.4
v -0.4 0 0.4
v -0.4 0.1 0.4
v -0.4 0.2 0.4
v -0.4 0.3 0.4
v -0.4 0.6 0.4
v -0.4 0.7 0.4
v -0.4 0.8 0.4
v -0.3 0.1 0.4
v -0.3 0.2 0.4
v -0.3 0.3 0.4
v -0.3 0.6 0.4
v -0.3 0.7 0.4
v -0.2 0.1 0.4
v -0.2 0.3 0.4
v -0.2 0.6 0.4
v -0.2 0.7 0.4
v -0.2 0.8 0.4
v -0.7 0 0.2
v -0.7 0.2 0.2
v -0.6 0 0.2
v -0.6 0.2 0.2
v -0.6 0.5 0.2
v -0.6 0.6 0.2
v -0.5 0.5 0.2
v -0.5 0.6 0.2
v -0.3 0 0.2
v -0.3 0.1 0.2
v -0.3 0.2 0.2
v -0.3 0.5 0.2
v -0.3 0.6 0.2
v -0.2 0 0.2
v -0.2 0.1 0.2
v -0.2 0.2 0.2
v -0.8 0 0.0999999
v -0.8 0.1 0.0999999
v -0.7 0 0.0999999
v -0.7 0.1 0.0999999
v -0.6 0.2 0.0999999
v -0.6 0.5 0.0999999
v -0.5 0.5 0.0999999
v -0.3 0.2 0.0999999
v -0.3 0.3 0.0999999
v -0.3 0.5 0.0999999
v -0.2 0 0.0999999
v -0.2 0.1 0.0999999
v -0.1 0 0.0999999
v -0.1 0.1 0.0999999
v -0.9 0 -5.96046e-08
v -0.9 0.1 -5.96046e-08
v -0.8 0 -5.96046e-08
v -0.8 0.1 -5.96046e-08
v -0.1 0 -5.96046e-08
v -0.1 0.1 -5.96046e-08
v 0 0 -5.96046e-08
v 0 0.1 -5.96046e-08
v -0.8 0 0.4
v -0.8 0.1 0.4
v -0.7 0 0.4
v -0.7 0.1 0.4
v -0.2 0 0.4
v -0.2 0.1 0.4
v -0.1 0 0.4
v -0.1 0.1 0.4
v -0.7 0 0.3
v -0.7 0.2 0.3
v -0.6 0 0.3
v -0.6 0.2 0.3
v -0.6 0.4 0.3
v -0.6 0.6 0.3
v -0.4 0.2 0.3
v -0.4 0.3 0.3
v -0.3 0 0.3
v -0.3 0.2 0.3
v -0.3 0.3 0.3
v -0.3 0.4 0.3
v -0.3 0.6 0.3
v -0.2 0 0.3
v -0.2 0.2 0.3
v -0.7 0.6 0.2
v -0.7 0.7 0.2
v -0.7 0.8 0.2
v -0.6 0.6 0.2
v -0.6 0.7 0.2
v -0.6 0.8 0.2
v -0.5 0.6 0.2
v -0.5 0.7 0.2
v -0.5 0.8 0.2
v -0.4 0.7 0.2
v -0.4 0.8 0.2
v -0.3 0.6 0.2
v -0.2 0.6 0.2
v -0.2 0.8 0.2
v -0.7 0.4 -5.96046e-08
v -0.7 0.6 -5.96046e-08
v -0.4 0.4 -5.96046e-08
v -0.3 0.4 -5.96046e-08
v -0.2 0.4 -5.96046e-08
v -0.2 0.6 -5.96046e-08
v -0.9 0 -0.1
v -0.9 0.1 -0.1
v -0.8 0 -0.1
v -0.8 0.1 -0.1
v -0.1 0 -0.1
v -0.1 0.1 -0.1
v 0 0 -0.1
v 0 0.1 -0.1
v -0.8 0 -0.2
v -0.8 0.1 -0.2
v -0.7 0 -0.2
v -0.7 0.1 -0.2
v -0.7 0.3 -0.2
v -0.7 0.4 -0.2
v -0.6 0.3 -0.2
v -0.6 0.4 -0.2
v -0.5 0.3 -0.2
v -0.5 0.4 -0.2
v -0.2 0 -0.2
v -0.2 0.1 -0.2
v -0.2 0.3 -0.2
v -0.2 0.4 -0.2
v -0.1 0 -0.2
v -0.1 0.1 -0.2
v -0.7 0 -0.3
v -0.7 0.3 -0.3
v -0.6 0 -0.3
v -0.6 0.2 -0.3
v -0.5 0 -0.3
v -0.5 0.2 -0.3
v -0.3 0.1 -0.3
v -0.3 0.2 -0.3
v -0.2 0 -0.3
v -0.2 0.1 -0.3
v -0.2 0.2 -0.3
v -0.2 0.3 -0.3
v -0.7 0 0.6
v -0.6 0 0.6
v -0.3 0 0.6
v -0.2 0 0.6
v -0.8 0 0.5
v -0.7 0 0.5
v -0.6 0 0.5
v -0.5 0 0.5
v -0.4 0 0.5
v -0.3 0 0.5
v -0.2 0 0.5
v -0.1 0 0.5
v -0.8 0 0.4
v -0.7 0 0.4
v -0.5 0 0.4
v -0.4 0 0.4
v -0.2 0 0.4
v -0.1 0 0.4
v -0.7 0 0.3
v -0.6 0 0.3
v -0.3 0 0.3
v -0.2 0 0.3
v -0.7 0 0.2
v -0.6 0 0.2
v -0.3 0 0.2
v -0.2 0 0.2
v -0.8 0 0.0999999
v -0.7 0 0.0999999
v -0.2 0 0.0999999
v -0.1 0 0.0999999
v -0.9 0 -5.96046e-08
v -0.8 0 -5.96046e-08
v -0.1 0 -5.96046e-08
v 0 0 -5.96046e-08
v -0.9 0 -0.1
v -0.8 0 -0.1
v -0.1 0 -0.1
v 0 0 -0.1
v -0.8 0 -0.2
v -0.7 0 -0.2
v -0.6 0 -0.2
v -0.5 0 -0.2
v -0.2 0 -0.2
v -0.1 0 -0.2
v -0.7 0 -0.3
v -0.6 0 -0.3
v -0.5 0 -0.3
v -0.2 0 -0.3
v -0.7 0.2 0.3
v -0.6 0.2 0.3
v -0.3 0.2 0.3
v -0.2 0.2 0.3
v -0.7 0.2 0.2
v -0.6 0.2 0.2
v -0.3 0.2 0.2
v -0.2 0.2 0.2
v -0.7 0.3 0.5
v -0.2 0.3 0.5
v -0.7 0.3 0.4
v -0.6 0.3 0.4
v -0.4 0.3 0.4
v -0.3 0.3 0.4
v -0.2 0.3 0.4
v -0.6 0.5 0.2
v -0.5 0.5 0.2
v -0.3 0.5 0.2
v -0.6 0.5 0.0999999
v -0.5 0.5 0.0999999
v -0.3 0.5 0.0999999
v -0.6 0.6 0.3
v -0.3 0.6 0.3
v -0.6 0.6 0.2
v -0.5 0.6 0.2
v -0.3 0.6 0.2
v -0.7 0.1 0.6
v -0.6 0.1 0.6
v -0.3 0.1 0.6
v -0.2 0.1 0.6
v -0.8 0.1 0.5
v -0.7 0.1 0.5
v -0.6 0.1 0.5
v -0.5 0.1 0.5
v -0.4 0.1 0.5
v -0.3 0.1 0.5
v -0.2 0.1 0.5
v -0.1 0.1 0.5
v -0.8 0.1 0.4
v -0.7 0.1 0.4
v -0.6 0.1 0.4
v -0.5 0.1 0.4
v -0.4 0.1 0.4
v -0.3 0.1 0.4
v -0.2 0.1 0.4
v -0.1 0.1 0.4
v -0.8 0.1 0.0999999
v -0.7 0.1 0.0999999
v -0.2 0.1 0.0999999
v -0.1 0.1 0.0999999
v -0.9 0.1 -5.96046e-08
v -0.8 0.1 -5.96046e-08
v -0.7 0.1 -5.96046e-08
v -0.1 0.1 -5.96046e-08
v 0 0.1 -5.96046e-08
v -0.9 0.1 -0.1
v -0.8 0.1 -0.1
v -0.1 0.1 -0.1
v 0 0.1 -0.1
v -0.8 0.1 -0.2
v -0.7 0.1 -0.2
v -0.2 0.1 -0.2
v -0.1 0.1 -0.2
v -0.6 0.2 0.3
v -0.4 0.2 0.3
v -0.3 0.2 0.3
v -0.3 0.2 0.2
v -0.6 0.2 0.0999999
v -0.3 0.2 0.0999999
v -0.7 0.3 -0.2
v -0.6 0.3 -0.2
v -0.5 0.3 -0.2
v -0.2 0.3 -0.2
v -0.7 0.3 -0.3
v -0.2 0.3 -0.3
v -0.7 0.4 -5.96046e-08
v -0.4 0.4 -5.96046e-08
v -0.3 0.4 -5.96046e-08
v -0.2 0.4 -5.96046e-08
v -0.6 0.4 -0.1
v -0.5 0.4 -0.1
v -0.4 0.4 -0.1
v -0.3 0.4 -0.1
v -0.7 0.4 -0.2
v -0.6 0.4 -0.2
v -0.5 0.4 -0.2
v -0.2 0.4 -0.2
v -0.7 0.6 0.5
v -0.2 0.6 0.5
v -0.7 0.6 0.4
v -0.6 0.6 0.4
v -0.5 0.6 0.4
v -0.4 0.6 0.4
v -0.3 0.6 0.4
v -0.2 0.6 0.4
v -0.7 0.6 0.2
v -0.6 0.6 0.2
v -0.5 0.6 0.2
v -0.3 0.6 0.2
v -0.2 0.6 0.2
v -0.6 0.6 0.0999999
v -0.5 0.6 0.0999999
v -0.3 0.6 0.0999999
v -0.2 0.6 0.0999999
v -0.7 0.6 -5.96046e-08
v -0.2 0.6 -5.96046e-08
v -0.5 0.7 0.4
v -0.4 0.7 0.4
v -0.5 0.7 0.2
v -0.4 0.7 0.2
v -0.7 0.8 0.4
v -0.5 0.8 0.4
v -0.4 0.8 0.4
v -0.2 0.8 0.4
v -0.7 0.8 0.3
v -0.6 0.8 0.3
v -0.7 0.8 0.2
v -0.6 0.8 0.2
v -0.5 0.8 0.2
v -0.4 0.8 0.2
v -0.2 0.8 0.2

# faces
f 3/5/1 2/5/1 1/5/1
f 4/5/1 2/5/1 3/5/1
f 11/5/1 6/5/1 5/5/1
f 12/5/1 6/5/1 11/5/1
f 13/5/1 8/5/1 7/5/1
f 14/5/1 8/5/1 13/5/1
f 15/5/1 10/5/1 9/5/1
f 16/5/1 10/5/1 15/5/1
f 25/5/1 18/5/1 17/5/1
f 26/5/1 18/5/1 25/5/1
f 27/5/1 20/5/1 19/5/1
f 28/5/1 22/5/1 21/5/1
f 30/5/1 24/5/1 23/5/1
f 31/5/1 20/5/1 27/5/1
f 32/5/1 28/5/1 21/5/1
f 34/5/1 31/5/1 27/5/1
f 34/5/1 32/5/1 31/5/1
f 35/4/1 29/4/1 28/4/1
f 35/5/1 28/5/1 32/5/1
f 35/5/1 32/5/1 34/5/1
f 36/5/1 30/5/1 29/5/1
f 36/4/1 29/4/1 35/4/1
f 37/5/1 24/5/1 30/5/1
f 37/5/1 30/5/1 36/5/1
f 38/5/1 24/5/1 37/5/1
f 39/1/1 34/1/1 33/1/1
f 40/5/1 35/5/1 34/5/1
f 40/1/1 34/1/1 39/1/1
f 40/5/1 36/5/1 35/5/1
f 40/5/1 37/5/1 36/5/1
f 41/5/1 37/5/1 40/5/1
f 42/5/1 37/5/1 41/5/1
f 43/5/1 37/5/1 42/5/1
f 44/5/1 40/5/1 39/5/1
f 44/3/1 41/3/1 40/3/1
f 45/5/1 42/5/1 41/5/1
f 45/3/1 41/3/1 44/3/1
f 46/5/1 44/5/1 39/5/1
f 46/5/1 45/5/1 44/5/1
f 47/5/1 45/5/1 46/5/1
f 48/5/1 42/5/1 45/5/1
f 48/5/1 45/5/1 47/5/1
f 49/5/1 42/5/1 48/5/1
f 50/5/1 42/5/1 49/5/1
f 51/6/1 48/6/1 47/6/1
f 52/5/1 49/5/1 48/5/1
f 52/6/1 48/6/1 51/6/1
f 53/5/1 49/5/1 52/5/1
f 54/5/1 52/5/1 51/5/1
f 55/4/1 53/4/1 52/4/1
f 55/5/1 52/5/1 54/5/1
f 56/4/1 53/4/1 55/4/1
f 59/5/1 58/5/1 57/5/1
f 60/5/1 58/5/1 59/5/1
f 63/5/1 62/5/1 61/5/1
f 64/5/1 62/5/1 63/5/1
f 67/5/1 66/5/1 65/5/1
f 68/5/1 66/5/1 67/5/1
f 71/5/1 70/5/1 69/5/1
f 72/5/1 70/5/1 71/5/1
f 76/5/1 74/5/1 73/5/1
f 77/4/1 75/4/1 74/4/1
f 77/5/1 74/5/1 76/5/1
f 78/4/1 75/4/1 77/4/1
f 79/5/1 77/5/1 76/5/1
f 79/5/1 78/5/1 77/5/1
f 80/5/1 78/5/1 79/5/1
f 81/5/1 78/5/1 80/5/1
f 82/5/1 80/5/1 79/5/1
f 83/5/1 80/5/1 82/5/1
f 84/5/2 85/5/2 86/5/2
f 86/5/2 85/5/2 87/5/2
f 88/5/2 89/5/2 90/5/2
f 90/5/2 89/5/2 91/5/2
f 91/5/2 89/5/2 92/5/2
f 90/5/2 91/5/2 93/5/2
f 93/5/2 91/5/2 94/5/2
f 95/5/2 96/5/2 97/5/2
f 97/5/2 96/5/2 98/5/2
f 99/5/2 100/5/2 101/5/2
f 101/5/2 100/5/2 102/5/2
f 103/5/2 104/5/2 105/5/2
f 103/5/2 105/5/2 106/5/2
f 106/5/2 105/5/2 107/5/2
f 108/5/2 109/5/2 116/5/2
f 116/5/2 109/5/2 117/5/2
f 110/5/2 111/5/2 118/5/2
f 112/5/2 113/5/2 119/5/2
f 119/5/2 113/5/2 120/5/2
f 114/5/2 115/5/2 121/5/2
f 121/5/2 115/5/2 122/5/2
f 118/5/2 111/5/2 123/5/2
f 119/4/2 120/4/2 124/4/2
f 121/4/2 122/4/2 125/4/2
f 120/5/2 121/5/2 125/5/2
f 125/4/2 122/4/2 126/4/2
f 118/5/2 123/5/2 128/5/2
f 123/5/2 124/5/2 128/5/2
f 124/4/2 120/4/2 129/4/2
f 128/5/2 124/5/2 129/5/2
f 125/5/2 126/5/2 130/5/2
f 129/4/2 120/4/2 130/4/2
f 120/5/2 125/5/2 130/5/2
f 130/5/2 126/5/2 131/5/2
f 131/5/2 126/5/2 132/5/2
f 132/5/2 126/5/2 133/5/2
f 127/1/2 128/1/2 134/1/2
f 128/5/2 129/5/2 135/5/2
f 134/1/2 128/1/2 135/1/2
f 129/5/2 130/5/2 135/5/2
f 135/5/2 130/5/2 136/5/2
f 130/4/2 131/4/2 137/4/2
f 136/5/2 130/5/2 137/5/2
f 131/5/2 132/5/2 138/5/2
f 137/4/2 131/4/2 138/4/2
f 138/5/2 132/5/2 139/5/2
f 135/3/2 136/3/2 140/3/2
f 134/5/2 135/5/2 140/5/2
f 136/5/2 137/5/2 141/5/2
f 140/3/2 136/3/2 141/3/2
f 137/5/2 138/5/2 141/5/2
f 141/5/2 138/5/2 142/5/2
f 142/5/2 138/5/2 143/5/2
f 134/5/2 140/5/2 144/5/2
f 140/5/2 141/5/2 144/5/2
f 141/5/2 142/5/2 144/5/2
f 144/5/2 142/5/2 145/5/2
f 145/5/2 142/5/2 146/5/2
f 142/4/2 143/4/2 147/4/2
f 146/5/2 142/5/2 147/5/2
f 143/5/2 138/5/2 148/5/2
f 147/4/2 143/4/2 148/4/2
f 148/5/2 138/5/2 149/5/2
f 145/6/2 146/6/2 150/6/2
f 146/5/2 147/5/2 151/5/2
f 150/6/2 146/6/2 151/6/2
f 150/5/2 151/5/2 152/5/2
f 151/5/2 147/5/2 153/5/2
f 152/5/2 151/5/2 153/5/2
f 154/5/2 155/5/2 160/5/2
f 160/5/2 155/5/2 161/5/2
f 156/5/2 157/5/2 162/5/2
f 162/5/2 157/5/2 163/5/2
f 158/5/2 159/5/2 164/5/2
f 164/5/2 159/5/2 165/5/2
f 166/5/2 167/5/2 168/5/2
f 168/5/2 167/5/2 169/5/2
f 172/5/3 171/5/3 170/5/3
f 173/5/3 171/5/3 172/5/3
f 176/5/3 175/5/3 174/5/3
f 177/5/3 175/5/3 176/5/3
f 180/5/3 179/5/3 178/5/3
f 181/5/3 179/5/3 180/5/3
f 187/5/3 186/5/3 185/5/3
f 188/5/3 186/5/3 187/5/3
f 191/5/3 190/5/3 189/5/3
f 192/5/3 190/5/3 191/5/3
f 195/1/3 183/1/3 182/1/3
f 196/5/3 184/5/3 183/5/3
f 196/1/3 183/1/3 195/1/3
f 197/5/3 184/5/3 196/5/3
f 198/5/3 194/5/3 193/5/3
f 199/5/3 194/5/3 198/5/3
f 205/5/3 201/5/3 200/5/3
f 206/5/3 201/5/3 205/5/3
f 207/5/3 201/5/3 206/5/3
f 208/6/3 203/6/3 202/6/3
f 209/5/3 204/5/3 203/5/3
f 209/6/3 203/6/3 208/6/3
f 211/2/3 206/2/3 205/2/3
f 212/1/3 207/1/3 206/1/3
f 212/2/3 206/2/3 211/2/3
f 213/7/3 209/7/3 208/7/3
f 214/5/3 204/5/3 209/5/3
f 214/7/3 209/7/3 213/7/3
f 215/5/3 204/5/3 214/5/3
f 216/5/3 211/5/3 210/5/3
f 217/1/3 212/1/3 211/1/3
f 217/5/3 211/5/3 216/5/3
f 218/1/3 207/1/3 212/1/3
f 218/1/3 212/1/3 217/1/3
f 219/1/3 207/1/3 218/1/3
f 220/5/3 214/5/3 213/5/3
f 221/5/3 214/5/3 220/5/3
f 223/1/3 218/1/3 217/1/3
f 224/2/3 219/2/3 218/2/3
f 224/1/3 218/1/3 223/1/3
f 225/2/3 219/2/3 224/2/3
f 226/7/3 221/7/3 220/7/3
f 227/5/3 222/5/3 221/5/3
f 227/7/3 221/7/3 226/7/3
f 228/5/3 225/5/3 224/5/3
f 228/5/3 224/5/3 223/5/3
f 229/5/3 225/5/3 228/5/3
f 230/6/3 227/6/3 226/6/3
f 231/5/3 222/5/3 227/5/3
f 231/6/3 227/6/3 230/6/3
f 232/5/3 222/5/3 231/5/3
f 235/5/3 234/5/3 233/5/3
f 236/5/3 234/5/3 235/5/3
f 239/4/3 238/4/3 237/4/3
f 240/4/3 238/4/3 239/4/3
f 244/5/3 240/5/3 239/5/3
f 245/5/3 240/5/3 244/5/3
f 246/5/3 242/5/3 241/5/3
f 247/4/3 243/4/3 242/4/3
f 247/5/3 242/5/3 246/5/3
f 248/4/3 243/4/3 247/4/3
f 251/5/3 250/5/3 249/5/3
f 252/5/3 250/5/3 251/5/3
f 255/5/3 254/5/3 253/5/3
f 256/5/3 255/5/3 253/5/3
f 257/5/3 255/5/3 256/5/3
f 258/5/3 255/5/3 257/5/3
f 261/5/3 260/5/3 259/5/3
f 262/5/3 260/5/3 261/5/3
f 265/5/3 264/5/3 263/5/3
f 266/5/3 264/5/3 265/5/3
f 269/5/3 268/5/3 267/5/3
f 270/5/3 268/5/3 269/5/3
f 271/5/4 272/5/4 273/5/4
f 273/5/4 272/5/4 274/5/4
f 275/5/4 276/5/4 277/5/4
f 277/5/4 276/5/4 278/5/4
f 279/5/4 280/5/4 281/5/4
f 281/5/4 280/5/4 282/5/4
f 282/1/4 283/1/4 285/1/4
f 285/1/4 283/1/4 286/1/4
f 285/2/4 286/2/4 288/2/4
f 286/1/4 283/1/4 289/1/4
f 288/2/4 286/2/4 289/2/4
f 283/5/4 284/5/4 290/5/4
f 289/1/4 283/1/4 290/1/4
f 290/5/4 284/5/4 291/5/4
f 287/5/4 288/5/4 292/5/4
f 292/5/4 288/5/4 293/5/4
f 294/5/4 295/5/4 297/5/4
f 295/4/4 296/4/4 298/4/4
f 297/5/4 295/5/4 298/5/4
f 298/4/4 296/4/4 299/4/4
f 297/5/4 298/5/4 300/5/4
f 298/5/4 299/5/4 300/5/4
f 300/5/4 299/5/4 301/5/4
f 301/5/4 299/5/4 302/5/4
f 300/5/4 301/5/4 303/5/4
f 300/5/4 303/5/4 305/5/4
f 303/5/4 304/5/4 305/5/4
f 305/5/4 304/5/4 306/5/4
f 306/5/4 304/5/4 307/5/4
f 308/5/4 309/5/4 310/5/4
f 310/5/4 309/5/4 311/5/4
f 311/5/4 309/5/4 312/5/4
f 312/5/4 309/5/4 313/5/4
f 314/5/4 315/5/4 316/5/4
f 316/5/4 315/5/4 317/5/4
f 318/5/4 319/5/4 320/5/4
f 320/5/4 319/5/4 321/5/4
f 322/5/4 323/5/4 324/5/4
f 324/5/4 323/5/4 325/5/4
f 326/5/4 327/5/4 328/5/4
f 328/5/4 327/5/4 329/5/4
f 328/4/4 329/4/4 330/4/4
f 330/4/4 329/4/4 331/4/4
f 330/5/4 331/5/4 334/5/4
f 334/5/4 331/5/4 335/5/4
f 332/5/4 333/5/4 336/5/4
f 336/5/4 333/5/4 337/5/4
f 338/5/4 339/5/4 340/5/4
f 340/5/4 339/5/4 341/5/4
f 340/4/4 341/4/4 342/4/4
f 341/5/4 339/5/4 343/5/4
f 342/4/4 341/4/4 343/4/4
f 342/5/4 343/5/4 344/5/4
f 343/5/4 339/5/4 345/5/4
f 344/5/4 343/5/4 345/5/4
f 342/5/4 344/5/4 346/5/4
f 344/4/4 345/4/4 347/4/4
f 346/5/4 344/5/4 347/5/4
f 345/5/4 339/5/4 348/5/4
f 347/4/4 345/4/4 348/4/4
f 348/5/4 339/5/4 349/5/4
f 355/5/5 351/5/5 350/5/5
f 356/5/5 351/5/5 355/5/5
f 359/5/5 353/5/5 352/5/5
f 360/5/5 353/5/5 359/5/5
f 362/5/5 357/5/5 356/5/5
f 362/5/5 355/5/5 354/5/5
f 362/5/5 356/5/5 355/5/5
f 363/5/5 357/5/5 362/5/5
f 364/5/5 357/5/5 363/5/5
f 365/5/5 361/5/5 360/5/5
f 365/5/5 360/5/5 359/5/5
f 365/5/5 359/5/5 358/5/5
f 366/5/5 361/5/5 365/5/5
f 367/5/5 361/5/5 366/5/5
f 368/5/5 364/5/5 363/5/5
f 368/5/5 366/5/5 365/5/5
f 368/5/5 365/5/5 364/5/5
f 369/5/5 366/5/5 368/5/5
f 370/5/5 366/5/5 369/5/5
f 371/5/5 366/5/5 370/5/5
f 373/5/5 370/5/5 369/5/5
f 374/5/5 370/5/5 373/5/5
f 377/5/5 373/5/5 372/5/5
f 377/5/5 375/5/5 374/5/5
f 377/5/5 374/5/5 373/5/5
f 378/5/5 375/5/5 377/5/5
f 381/5/5 378/5/5 377/5/5
f 381/5/5 379/5/5 378/5/5
f 381/5/5 377/5/5 376/5/5
f 382/5/5 379/5/5 381/5/5
f 384/5/5 382/5/5 381/5/5
f 384/5/5 383/5/5 382/5/5
f 384/5/5 381/5/5 380/5/5
f 385/5/5 383/5/5 384/5/5
f 386/5/5 383/5/5 385/5/5
f 387/5/5 383/5/5 386/5/5
f 388/5/5 386/5/5 385/5/5
f 389/5/5 386/5/5 388/5/5
f 390/5/5 386/5/5 389/5/5
f 391/5/5 386/5/5 390/5/5
f 392/5/5 386/5/5 391/5/5
f 393/5/5 386/5/5 392/5/5
f 394/5/5 390/5/5 389/5/5
f 395/4/5 391/4/5 390/4/5
f 395/5/5 390/5/5 394/5/5
f 396/5/5 392/5/5 391/5/5
f 396/4/5 391/4/5 395/4/5
f 397/5/5 392/5/5 396/5/5
f 402/5/5 399/5/5 398/5/5
f 403/5/5 399/5/5 402/5/5
f 404/5/5 401/5/5 400/5/5
f 405/5/5 401/5/5 404/5/5
f 408/1/5 407/1/5 406/1/5
f 409/1/5 407/1/5 408/1/5
f 410/1/5 407/1/5 409/1/5
f 411/1/5 407/1/5 410/1/5
f 412/1/5 407/1/5 411/1/5
f 416/4/5 414/4/5 413/4/5
f 417/5/5 415/5/5 414/5/5
f 417/4/5 414/4/5 416/4/5
f 418/5/5 415/5/5 417/5/5
f 421/5/5 420/5/5 419/5/5
f 422/5/5 420/5/5 421/5/5
f 423/5/5 420/5/5 422/5/5
f 424/5/6 425/5/6 429/5/6
f 429/5/6 425/5/6 430/5/6
f 426/5/6 427/5/6 433/5/6
f 433/5/6 427/5/6 434/5/6
f 430/5/6 431/5/6 436/5/6
f 428/5/6 429/5/6 436/5/6
f 429/5/6 430/5/6 436/5/6
f 436/5/6 431/5/6 437/5/6
f 437/5/6 431/5/6 438/5/6
f 438/5/6 431/5/6 439/5/6
f 434/5/6 435/5/6 440/5/6
f 433/5/6 434/5/6 440/5/6
f 432/5/6 433/5/6 440/5/6
f 440/5/6 435/5/6 441/5/6
f 441/5/6 435/5/6 442/5/6
f 442/5/6 435/5/6 443/5/6
f 444/5/6 445/5/6 449/5/6
f 449/5/6 445/5/6 450/5/6
f 446/5/6 447/5/6 451/5/6
f 449/5/6 450/5/6 453/5/6
f 448/5/6 449/5/6 453/5/6
f 453/5/6 450/5/6 454/5/6
f 446/5/6 451/5/6 455/5/6
f 451/5/6 452/5/6 455/5/6
f 455/5/6 452/5/6 456/5/6
f 454/5/6 450/5/6 457/5/6
f 457/5/6 450/5/6 458/5/6
f 446/5/6 455/5/6 459/5/6
f 459/5/6 455/5/6 460/5/6
f 461/5/6 462/5/6 464/5/6
f 462/5/6 463/5/6 464/5/6
f 461/5/6 464/5/6 465/5/6
f 465/5/6 464/5/6 466/5/6
f 467/5/6 468/5/6 471/5/6
f 469/5/6 470/5/6 471/5/6
f 468/5/6 469/5/6 471/5/6
f 471/5/6 470/5/6 472/5/6
f 473/5/6 474/5/6 477/5/6
f 477/5/6 474/5/6 478/5/6
f 474/4/6 475/4/6 479/4/6
f 478/5/6 474/5/6 479/5/6
f 475/5/6 476/5/6 480/5/6
f 479/4/6 475/4/6 480/4/6
f 473/5/6 477/5/6 481/5/6
f 477/4/6 478/4/6 482/4/6
f 481/5/6 477/5/6 482/5/6
f 478/5/6 479/5/6 483/5/6
f 482/4/6 478/4/6 483/4/6
f 479/5/6 480/5/6 483/5/6
f 480/5/6 476/5/6 484/5/6
f 483/5/6 480/5/6 484/5/6
f 485/5/6 486/5/6 487/5/6
f 487/5/6 486/5/6 488/5/6
f 488/5/6 486/5/6 489/5/6
f 489/5/6 486/5/6 490/5/6
f 490/5/6 486/5/6 491/5/6
f 491/5/6 486/5/6 492/5/6
f 493/5/6 494/5/6 498/5/6
f 494/4/6 495/4/6 498/4/6
f 495/5/6 496/5/6 499/5/6
f 498/4/6 495/4/6 499/4/6
f 496/4/6 497/4/6 500/4/6
f 499/5/6 496/5/6 500/5/6
f 500/4/6 497/4/6 501/4/6
f 498/5/6 499/5/6 502/5/6
f 493/5/6 498/5/6 502/5/6
f 500/5/6 501/5/6 502/5/6
f 499/5/6 500/5/6 502/5/6
f 502/5/6 501/5/6 503/5/6
f 504/5/6 505/5/6 506/5/6
f 506/5/6 505/5/6 507/5/6
f 508/5/6 509/5/6 512/5/6
f 512/5/6 509/5/6 513/5/6
f 512/4/6 513/4/6 514/4/6
f 513/5/6 509/5/6 515/5/6
f 514/4/6 513/4/6 515/4/6
f 515/5/6 509/5/6 516/5/6
f 510/5/6 511/5/6 517/5/6
f 517/5/6 511/5/6 518/5/6
